<?xml version="1.0" encoding="iso-8859-1"?>
<!-- Generator: Adobe Illustrator 19.0.0, SVG Export Plug-In . SVG Version: 6.00 Build 0)  -->
<svg version="1.1" id="Capa_1" xmlns="http://www.w3.org/2000/svg" xmlns:xlink="http://www.w3.org/1999/xlink" x="0px" y="0px"
	 viewBox="0 0 480 480" style="enable-background:new 0 0 480 480;" xml:space="preserve">
<g>
	<g>
		<path d="M234.008,311.248C223.405,308.514,215.996,298.95,216,288v-16c0-13.255,10.745-24,24-24
			c10.945-0.001,20.504,7.403,23.24,18l15.504-4c-2.282-8.81-7.51-16.574-14.816-22H264v-24h-16v16.896
			c-2.629-0.57-5.31-0.87-8-0.896c-2.687-0.003-5.367,0.265-8,0.8V216h-16v24h0.248c-10.184,7.487-16.213,19.36-16.248,32v16
			c0.035,12.64,6.064,24.513,16.248,32H216v24h16v-16.8c2.633,0.535,5.313,0.803,8,0.8c2.69-0.026,5.371-0.326,8-0.896V344h16v-24
			h-0.072c7.306-5.426,12.534-13.19,14.816-22l-15.504-4C259.931,306.835,246.843,314.557,234.008,311.248z"/>
	</g>
</g>
<g>
	<g>
		<path d="M472,152H8c-4.418,0-8,3.582-8,8v240c0,4.418,3.582,8,8,8h464c4.418,0,8-3.582,8-8V160C480,155.582,476.418,152,472,152z
			 M16,168h31.2c-3.23,15.701-15.499,27.97-31.2,31.2V168z M16,392v-31.2c15.701,3.23,27.97,15.499,31.2,31.2H16z M464,392h-31.2
			c3.23-15.701,15.499-27.97,31.2-31.2V392z M464,344.64c-24.528,3.566-43.794,22.832-47.36,47.36H63.36
			c-3.566-24.528-22.832-43.794-47.36-47.36V215.36c24.528-3.566,43.794-22.832,47.36-47.36h353.28
			c3.566,24.528,22.832,43.794,47.36,47.36V344.64z M464,199.2c-15.701-3.23-27.97-15.499-31.2-31.2H464V199.2z"/>
	</g>
</g>
<g>
	<g>
		<rect y="424" width="480" height="16"/>
	</g>
</g>
<g>
	<g>
		<path d="M424,224c-13.255,0-24,10.745-24,24c0.014,3.564,0.834,7.078,2.4,10.28L388.688,272h-53.096
			c-0.91-11.074-3.75-21.904-8.392-32H352c2.122,0,4.156-0.844,5.656-2.344l8.064-8.056c3.202,1.566,6.716,2.386,10.28,2.4
			c13.255,0,24-10.745,24-24s-10.745-24-24-24s-24,10.745-24,24c0.014,3.564,0.834,7.078,2.4,10.28l-5.712,5.72h-30.872
			c-28.951-40.549-84.214-52.02-126.912-26.344l-18.464-12.312c-1.316-0.874-2.86-1.341-4.44-1.344h-32v16h29.6l11.504,7.664
			c-10.28,8.945-18.549,19.965-24.264,32.336h-28.56l-10.6-15.904c9.766-10.224,9.394-26.429-0.83-36.194
			c-10.224-9.766-26.429-9.394-36.194,0.83s-9.394,26.429,0.83,36.194c5.856,5.593,14.012,8.086,21.994,6.722l13.864,20.8
			c1.486,2.221,3.983,3.554,6.656,3.552h27.2c-1.372,5.245-2.292,10.598-2.752,16H88c-2.122,0-4.156,0.844-5.656,2.344L66.28,290.4
			c-3.202-1.566-6.716-2.386-10.28-2.4c-13.255,0-24,10.745-24,24s10.745,24,24,24s24-10.745,24-24
			c-0.014-3.564-0.834-7.078-2.4-10.28L91.312,288h53.096c0.46,5.402,1.38,10.755,2.752,16H120v16h32.84
			c4.039,8.746,9.368,16.836,15.808,24h-42.12c-4.418-12.497-18.131-19.046-30.627-14.627S76.855,347.503,81.273,360
			s18.131,19.046,30.627,14.627c6.835-2.416,12.211-7.793,14.627-14.627h60.52c32.017,21.298,73.68,21.336,105.736,0.096l13.6,13.6
			c1.497,1.476,3.514,2.304,5.616,2.304h32v-16h-28.688l-9.92-9.92c6.92-6.455,12.85-13.895,17.6-22.08h32.712l10.6,15.904
			c-9.766,10.224-9.394,26.429,0.83,36.194c10.224,9.766,26.429,9.394,36.194-0.83c9.766-10.224,9.394-26.429-0.83-36.194
			c-5.856-5.593-14.012-8.086-21.994-6.722l-13.864-20.8c-1.483-2.217-3.973-3.549-6.64-3.552h-29.6
			c2.762-7.742,4.508-15.809,5.192-24H392c2.122,0,4.156-0.844,5.656-2.344L413.72,269.6c3.202,1.566,6.716,2.386,10.28,2.4
			c13.255,0,24-10.745,24-24S437.255,224,424,224z M376,200c4.418,0,8,3.582,8,8s-3.582,8-8,8s-8-3.582-8-8S371.582,200,376,200z
			 M96,216c-4.418,0-8-3.582-8-8s3.582-8,8-8s8,3.582,8,8S100.418,216,96,216z M56,320c-4.418,0-8-3.582-8-8s3.582-8,8-8
			s8,3.582,8,8S60.418,320,56,320z M104,360c-4.418,0-8-3.582-8-8s3.582-8,8-8s8,3.582,8,8S108.418,360,104,360z M240,360
			c-44.183,0-80-35.817-80-80c0-44.183,35.817-80,80-80s80,35.817,80,80C319.952,324.163,284.163,359.951,240,360z M384,352
			c4.418,0,8,3.582,8,8s-3.582,8-8,8s-8-3.582-8-8S379.582,352,384,352z M424,256c-4.418,0-8-3.582-8-8s3.582-8,8-8s8,3.582,8,8
			S428.418,256,424,256z"/>
	</g>
</g>
<g>
	<g>
		<rect x="392" y="312" width="32" height="16"/>
	</g>
</g>
<g>
	<g>
		<rect x="56" y="248" width="32" height="16"/>
	</g>
</g>
<g>
	<g>
		<path d="M48,40H32c0,17.673-14.327,32-32,32v16c17.673,0,32,14.327,32,32h16c0-17.673,14.327-32,32-32V72
			C62.327,72,48,57.673,48,40z M40,93.6c-3.546-5.388-8.135-10.012-13.496-13.6c5.361-3.588,9.95-8.212,13.496-13.6
			c3.546,5.388,8.135,10.012,13.496,13.6C48.135,83.588,43.546,88.212,40,93.6z"/>
	</g>
</g>
<g>
</g>
<g>
</g>
<g>
</g>
<g>
</g>
<g>
</g>
<g>
</g>
<g>
</g>
<g>
</g>
<g>
</g>
<g>
</g>
<g>
</g>
<g>
</g>
<g>
</g>
<g>
</g>
<g>
</g>
</svg>
