<?xml version="1.0" encoding="UTF-8"?>
<svg viewBox="0 0 512 512" xmlns="http://www.w3.org/2000/svg" xmlns:xlink="http://www.w3.org/1999/xlink">
 <defs>
  <filter id="j">
   <feGaussianBlur stdDeviation="6.4516"/>
  </filter>
  <filter id="ap">
   <feGaussianBlur stdDeviation="2.4558"/>
  </filter>
  <filter id="c" x="-.23226" y="-.23226" width="1.4645" height="1.4645">
   <feGaussianBlur stdDeviation="25.8065"/>
  </filter>
  <filter id="as" x="-.66598" y="-.66598" width="2.332" height="2.332">
   <feGaussianBlur stdDeviation="73.9983"/>
  </filter>
  <filter id="b" x="-.23751" y="-.23751" width="1.475" height="1.475">
   <feGaussianBlur stdDeviation="26.39"/>
  </filter>
  <filter id="d" x="-.52935" y="-.52935" width="2.0587" height="2.0587">
   <feGaussianBlur stdDeviation="58.8171"/>
  </filter>
  <filter id="ar" x="-.0796" y="-.45472" width="1.1592" height="1.9094">
   <feGaussianBlur stdDeviation="65.220869565217399 31.89086956521739"/>
  </filter>
  <filter id="i" x="-.06897" y="-.39402" width="1.138" height="1.788">
   <feGaussianBlur stdDeviation="27.4367"/>
  </filter>
  <filter id="aq" x="-.22562" y="-.25634" width="1.4512" height="1.5127">
   <feGaussianBlur stdDeviation="8.9922"/>
  </filter>
  <filter id="ao" x="-.16316" y="-.93206" width="1.3263" height="2.8641">
   <feGaussianBlur stdDeviation="64.9022"/>
  </filter>
  <linearGradient id="e">
   <stop stop-color="#fff" offset="0"/>
   <stop stop-color="#fff" stop-opacity="0" offset="1"/>
  </linearGradient>
  <linearGradient id="a">
   <stop stop-color="#cf0" offset="0"/>
   <stop stop-color="#cf0" stop-opacity="0" offset="1"/>
  </linearGradient>
  <linearGradient id="f">
   <stop stop-color="#0f0" stop-opacity="0" offset="0"/>
   <stop stop-color="#ff0" offset="1"/>
  </linearGradient>
  <linearGradient id="g">
   <stop stop-color="#008033" offset="0"/>
   <stop stop-color="#d4aa00" stop-opacity="0" offset="1"/>
  </linearGradient>
  <linearGradient id="am" x1="335.25" x2="342.94" y1="789.77" y2="772.48" gradientUnits="userSpaceOnUse">
   <stop stop-color="#0a0" offset="0"/>
   <stop stop-color="#fff" stop-opacity=".58" offset="1"/>
  </linearGradient>
  <linearGradient id="ak" x1="170.57" x2="163.04" y1="840.92" y2="762.32" gradientUnits="userSpaceOnUse">
   <stop stop-color="#c8ab37" offset="0"/>
   <stop stop-color="#f4eed7" offset="1"/>
  </linearGradient>
  <linearGradient id="aj" x1="179.47" x2="173.55" y1="806.1" y2="799.69" gradientUnits="userSpaceOnUse">
   <stop stop-color="#8dd35f" offset="0"/>
   <stop stop-color="#fff" stop-opacity=".58" offset="1"/>
  </linearGradient>
  <linearGradient id="ai" x1="204.93" x2="194.68" y1="779.52" y2="767.99" gradientUnits="userSpaceOnUse">
   <stop stop-color="#165016" offset="0"/>
   <stop stop-color="#165016" stop-opacity="0" offset="1"/>
  </linearGradient>
  <linearGradient id="ah" x1="187.55" x2="180.02" y1="798.13" y2="719.53" gradientUnits="userSpaceOnUse">
   <stop stop-color="#abc837" offset="0"/>
   <stop stop-color="#abc837" stop-opacity="0" offset="1"/>
  </linearGradient>
  <linearGradient id="h" x1="198.52" x2="181.23" y1="624.86" y2="652.08" gradientUnits="userSpaceOnUse">
   <stop stop-color="#00d400" offset="0"/>
   <stop stop-color="#cf0" offset="1"/>
  </linearGradient>
  <linearGradient id="ag" x1="296.21" x2="305.26" y1="710.04" y2="723.63" gradientUnits="userSpaceOnUse">
   <stop stop-color="#ff0" offset="0"/>
   <stop stop-color="#ff0" stop-opacity="0" offset="1"/>
  </linearGradient>
  <linearGradient id="af" x1="226.92" x2="179.83" y1="766.87" y2="728.83" gradientUnits="userSpaceOnUse">
   <stop stop-color="#2ca02c" offset="0"/>
   <stop stop-color="#2ca02c" stop-opacity="0" offset="1"/>
  </linearGradient>
  <linearGradient id="ae" x1="241.87" x2="160.35" y1="885.97" y2="909.52" gradientUnits="userSpaceOnUse">
   <stop stop-color="#fff" offset="0"/>
   <stop stop-color="#4a0" stop-opacity="0" offset="1"/>
  </linearGradient>
  <linearGradient id="ad" x1="281.38" x2="284.21" y1="650.83" y2="685.59" gradientUnits="userSpaceOnUse">
   <stop stop-color="#abc837" offset="0"/>
   <stop stop-color="#cf0" stop-opacity=".0915" offset="1"/>
  </linearGradient>
  <linearGradient id="an" x1="291.68" x2="294.8" y1="765.56" y2="746.08" gradientUnits="userSpaceOnUse" xlink:href="#g"/>
  <linearGradient id="al" x1="373.52" x2="382.96" y1="789.93" y2="731.01" gradientUnits="userSpaceOnUse" xlink:href="#g"/>
  <radialGradient id="q" cx="3329.1" cy="-631.48" r="541.25" gradientTransform="matrix(0 .26641 -.22312 0 122.95 -219.76)" gradientUnits="userSpaceOnUse">
   <stop stop-color="#8bc43f" offset="0"/>
   <stop stop-color="#30883a" stop-opacity=".9843" offset="1"/>
  </radialGradient>
  <radialGradient id="o" cx="3504" cy="1416.6" r="599.91" gradientTransform="matrix(.24765 .00267 -.0021 .19429 -597.76 674.55)" gradientUnits="userSpaceOnUse">
   <stop stop-color="#caebb6" offset="0"/>
   <stop stop-color="#89c53f" offset=".6924"/>
   <stop stop-color="#247f39" offset="1"/>
  </radialGradient>
  <radialGradient id="n" cx="3263.1" cy="479.02" r="591.7" gradientTransform="matrix(-.00014371 .06526 -.07304 -.00016083 254.23 604.39)" gradientUnits="userSpaceOnUse">
   <stop stop-color="#fff" offset="0"/>
   <stop stop-color="#fff" stop-opacity=".58" offset="1"/>
  </radialGradient>
  <radialGradient id="ac" cx="3413" cy="397.7" r="252.7" gradientTransform="matrix(.03731 -4.9248 2.9307 .0222 2156.1 17564)" gradientUnits="userSpaceOnUse" xlink:href="#a"/>
  <radialGradient id="ab" cx="3413" cy="397.7" r="252.7" gradientTransform="matrix(2.4947 -4.2464 2.5269 1.4846 -5991 14681)" gradientUnits="userSpaceOnUse" xlink:href="#a"/>
  <radialGradient id="aa" cx="3413" cy="397.7" r="252.7" gradientTransform="matrix(4.2837 -2.4301 1.4461 2.5491 -11606 8111.8)" gradientUnits="userSpaceOnUse" xlink:href="#a"/>
  <radialGradient id="z" cx="3413" cy="397.7" r="252.7" gradientTransform="matrix(4.9248 .03731 -.0222 2.9307 -13183 -384.93)" gradientUnits="userSpaceOnUse" xlink:href="#a"/>
  <radialGradient id="y" cx="3413" cy="397.7" r="252.7" gradientTransform="matrix(4.2464 2.4947 -1.4846 2.5269 -10301 -8532.1)" gradientUnits="userSpaceOnUse" xlink:href="#a"/>
  <radialGradient id="x" cx="3413" cy="397.7" r="252.7" gradientTransform="matrix(2.4301 4.2837 -2.5491 1.4461 -3731.3 -14147)" gradientUnits="userSpaceOnUse" xlink:href="#a"/>
  <radialGradient id="w" cx="3413" cy="397.7" r="252.7" gradientTransform="matrix(-.03731 4.9248 -2.9307 -.0222 4765.4 -15724)" gradientUnits="userSpaceOnUse" xlink:href="#a"/>
  <radialGradient id="v" cx="3413" cy="397.7" r="252.7" gradientTransform="matrix(-2.4947 4.2464 -2.5269 -1.4846 12913 -12842)" gradientUnits="userSpaceOnUse" xlink:href="#a"/>
  <radialGradient id="u" cx="3413" cy="397.7" r="252.7" gradientTransform="matrix(-4.2837 2.4301 -1.4461 -2.5491 18527 -6272.3)" gradientUnits="userSpaceOnUse" xlink:href="#a"/>
  <radialGradient id="t" cx="3413" cy="397.7" r="252.7" gradientTransform="matrix(-4.9248 -.03731 .0222 -2.9307 20105 2224.4)" gradientUnits="userSpaceOnUse" xlink:href="#a"/>
  <radialGradient id="s" cx="3413" cy="397.7" r="252.7" gradientTransform="matrix(-4.2464 -2.4947 1.4846 -2.5269 17222 10372)" gradientUnits="userSpaceOnUse" xlink:href="#a"/>
  <radialGradient id="r" cx="3413" cy="397.7" r="252.7" gradientTransform="matrix(-2.4301 -4.2837 2.5491 -1.4461 10653 15986)" gradientUnits="userSpaceOnUse" xlink:href="#a"/>
  <radialGradient id="p" cx="2965.7" cy="-331.92" r="541.25" gradientTransform="matrix(2.1972e-8 .13554 -.15293 2.4792e-8 172.99 187.84)" gradientUnits="userSpaceOnUse" xlink:href="#e"/>
  <radialGradient id="m" cx="3635.7" cy="23.746" r="163.89" gradientTransform="matrix(.26679 -.15096 .04803 .08489 -672.88 1248.5)" gradientUnits="userSpaceOnUse" xlink:href="#f"/>
  <radialGradient id="l" cx="3635.7" cy="23.746" r="163.89" gradientTransform="matrix(-1.3886 .78572 -.24999 -.44183 6322.9 -3372.6)" gradientUnits="userSpaceOnUse" xlink:href="#f"/>
  <radialGradient id="k" cx="3421.3" cy="436.65" r="598.26" gradientTransform="matrix(-.02703 .25672 -.30102 -.03169 495.66 -93.52)" gradientUnits="userSpaceOnUse" xlink:href="#e"/>
 </defs>
 <g transform="matrix(1.148 0 0 1.148 -47.17 -691.3)">
  <g transform="matrix(.16301 0 0 .16301 -299.52 723.36)">
   <path d="m3208.6-499.21 249.84 1447.2 254.56-1480.2z" fill="url(#ac)"/>
   <path d="m3951.8-435.21-507.23 1378.2 960.56-1154.6z" fill="url(#ab)"/>
   <path d="m4563.5-8.1542-1128.4 939.98 1409.2-519.65z" fill="url(#aa)"/>
   <path d="m4879.7 667.52-1447.2 249.84 1480.2 254.56z" fill="url(#z)"/>
   <path d="m4815.7 1410.8-1378.2-507.23 1154.6 960.56z" fill="url(#y)"/>
   <path d="m4388.6 2022.4-939.98-1128.4 519.65 1409.2z" fill="url(#x)"/>
   <path d="m3713 2338.6-249.84-1447.2-254.56 1480.2z" fill="url(#w)"/>
   <path d="m2969.7 2274.7 507.23-1378.2-960.56 1154.6z" fill="url(#v)"/>
   <path d="m2358 1847.6 1128.4-939.98-1409.2 519.65z" fill="url(#u)"/>
   <path d="m2041.8 1171.9 1447.2-249.84-1480.2-254.56z" fill="url(#t)"/>
   <path d="m2105.8 428.67 1378.2 507.23-1154.6-960.56z" fill="url(#s)"/>
   <path d="m2532.9-183 939.98 1128.4-519.65-1409.2z" fill="url(#r)"/>
  </g>
  <path transform="matrix(.16905 0 0 .2051 -319.96 692.8)" d="m3479.8 1411.9c-84.663 0-164.05 3.8979-233.01 10.676-0.043 0.01-0.1301-0.01-0.173 0-44.626 4.389-84.55 10.034-118.84 16.603-77.572 14.862-125.4 34.576-125.4 56.281 0 46.13 213.95 83.56 477.43 83.56 8.2923 0 16.339-0.1386 24.528-0.2118 13.176-0.1179 26.164-0.3032 39.037-0.6048 119.37-2.796 224.81-13.261 299.34-28.549 71.167-14.597 114.35-33.512 114.35-54.194 0-10.555-11.534-20.61-31.955-29.91-10.016-4.5615-22.395-8.9284-36.619-13.065-61.642-17.926-160.33-31.449-277.75-37.319-41.685-2.084-85.44-3.2662-130.93-3.2662z" fill="#445016" filter="url(#ao)" opacity=".6905"/>
  <path d="m292.33 754.41c-0.15335 2.634-1.7064 5.5026-3.4022 6.921-1.5738-2.8147-1.0118-7.5655 1.9748-9.3362 1.4978-1.1142 2.8644-2.4564 2.0358-4.3394 1.8196 2.2878 3.4212 12.632-2.4865 13.741-0.60075 0.87535-1.4386 1.6204-2.2833 2.4748l0.53455-0.18775c0.11335-0.40622 0.53525-0.80137 0.8555-0.92242 1.3862-0.79964 3.4126-0.25845 4.6052 0.65567 0.9444 0.65123 1.845 0.94735 2.1698 2.0258-0.2975-0.48719-0.88255-1.1352-2.3992-0.24186-1.6094 0.94801-4.4498 0.7499-5.4534-0.98886 1.4368-0.45333 3.1294-1.1707 4.5032-0.12341-1.3664-1.393-3.7168-0.50917-5.3147 0.19402-1.4384 1.414-3.496 2.395-5.3103 3.2592 3.8542 0.34888 7.0191 2.717 9.5213 5.4793-2.2077-3.0464-5.5638-5.5516-8.2268-5.7624 2.8576-2.323 8.3072 0.87067 8.9242 5.0147 0.17055 1.033 0.9702 1.8392 1.2818 2.9167-1.2782-1.5697-4.6622-0.39022-7.4302-1.9167-1.7815-0.98241-2.698-1.938-3.3125-5.1614-0.46652-0.0855-1.1453-0.23904-1.6045-0.29424-1.1175 0.33875-2.1863 0.7227-2.8822 1.4413-0.30785-0.66063-0.46667-1.3562-0.6401-2.0055 0.94473-0.018 2.0356-0.42393 2.8965-0.5456 1.4612-0.88496 2.7734-3.0402 2.4339-4.8545-7e-3 1.3767-0.58607 2.9376-1.8828 4.1033-2.7388-3.0411 3.2711-5.4037 2.1878-7.631 1.0857 2.2283 1.44 7.841-1.7407 7.7743-0.19915 0.19839-0.29465 0.27933-0.46363 0.42018 2.9307-0.93037 6.5859-3.1799 8.5181-5.544 1.7778-1.4003 3.007-4.2837 2.3904-6.5656z" fill="url(#an)"/>
  <path d="m325.34 779.2c-7.9677 0.46394-16.645 5.1619-20.936 10.292 8.5144 4.7607 22.885 3.0604 28.242-5.9738 3.3704-4.5309 7.4304-8.6647 13.126-6.1581-6.9205-5.504-38.21-10.349-41.565 7.5216-2.6479 1.8171-4.9016 4.3514-7.486 6.9067l0.56795-1.6169c1.2288-0.34294 2.4241-1.6191 2.7902-2.5879 2.4189-4.1932 0.7818-10.323-1.9834-13.93-1.97-2.8567-2.8657-5.5809-6.1278-6.5637 1.4737 0.89989 3.434 2.6697 0.7316 7.2573-2.8676 4.8681-2.2684 13.46 2.9912 16.496 1.3713-4.3463 3.5414-9.4662 0.3733-13.622 4.2138 4.1334 1.5402 11.243-0.5869 16.077-4.2774 4.351-7.2448 10.575-9.8589 16.063-1.0554-11.659-8.2188-21.233-16.575-28.801 9.2151 6.6781 16.793 16.83 17.431 24.886 7.0268-8.6443-2.6337-25.129-15.169-26.995-3.1247-0.51578-5.5633-2.9347-8.8229-3.8775 4.7484 3.8664 1.1804 14.103 5.7979 22.476 2.9717 5.3889 5.8623 8.1611 15.613 10.02 0.25845 1.4113 0.72305 3.4646 0.89 4.8536-1.0247 3.3803-2.1861 6.6134-4.3597 8.7184 1.9984 0.93121 4.1026 1.4116 6.0666 1.9362 0.0545-2.8577 1.2823-6.1575 1.6504-8.7618 2.677-4.4198 9.1966-8.3894 14.685-7.3623-4.1645 0.0222-8.8862 1.7728-12.412 5.6953 9.1991 8.2848 16.346-9.8947 23.083-6.6179-6.7404-3.2841-23.719-4.3558-23.517 5.2656-0.60015 0.60235-0.845 0.89122-1.271 1.4024 2.8143-8.8651 9.6189-19.922 16.77-25.767 4.2357-5.3777 12.958-9.0957 19.861-7.2309z" fill="url(#am)"/>
  <path d="m375.48 756.2c-0.4639 7.9677-5.1619 16.645-10.292 20.936-4.7606-8.5144-3.0604-22.885 5.9738-28.242 4.5309-3.3704 8.6647-7.4304 6.1581-13.126 5.504 6.9205 10.349 38.21-7.5216 41.565-1.8171 2.6479-4.3515 4.9016-6.9067 7.486l1.6169-0.56794c0.3429-1.2288 1.6191-2.4241 2.5878-2.7903 4.1932-2.4189 10.323-0.78178 13.93 1.9834 2.8567 1.97 5.581 2.8657 6.5637 6.1278-0.8999-1.4737-2.6698-3.434-7.2573-0.73161-4.8682 2.8677-13.46 2.2684-16.496-2.9912 4.3463-1.3713 9.4662-3.5413 13.622-0.3733-4.1333-4.2139-11.243-1.5402-16.077 0.58689-4.3511 4.2774-10.575 7.2448-16.064 9.8589 11.659 1.0553 21.232 8.2188 28.801 16.575-6.678-9.2151-16.83-16.793-24.886-17.431 8.6443-7.0268 25.129 2.6337 26.995 15.169 0.5157 3.1247 2.9346 5.5633 3.8774 8.8229-3.8664-4.7484-14.103-1.1804-22.476-5.7979-5.3889-2.9717-8.1611-5.8623-10.02-15.613-1.4113-0.25847-3.4646-0.72308-4.8537-0.89004-3.3803 1.0247-6.6133 2.1861-8.7183 4.3598-0.9312-1.9984-1.4117-4.1026-1.9363-6.0666 2.8578-0.0545 6.1575-1.2824 8.7618-1.6504 4.4199-2.677 8.3894-9.1966 7.3623-14.685-0.022 4.1645-1.7728 8.8862-5.6953 12.412-8.2847-9.1991 9.8947-16.346 6.6179-23.083 3.2841 6.7404 4.3558 23.719-5.2655 23.517-0.6024 0.60014-0.8913 0.84498-1.4024 1.271 8.8651-2.8143 19.922-9.6189 25.767-16.77 5.3777-4.2357 9.0957-12.958 7.2309-19.861z" fill="url(#al)"/>
  <path d="m151.22 801.64c1.7902 3.8778 2.442 3.2588 4.8987 4.6522 5.4633 3.0986 9.7319 10.943 6.6727 16.981-4.6324-2.5163-6.3704-6.765-8.0046-11.262 1.2501 6.5749 3.5733 9.3187 7.282 11.878-6.5386 0.24999-9.4013-4.1994-10.551-9.2863-1.1274-4.9855 0.0763-9.9597-0.29757-12.962zm2.643 38.16c4.4614-4.4356 5.9507-9.7443 15.593-9.7502-2.0928-0.82506-5.6162-4.5825-6.792-6.1309l0.32151-0.13046c3.5935 4.9198 14.163 11.008 23.064 12.999-1.8425-8e-3 -5.158-0.34258-8.1918-1.9387l-4.5004-2.1298c-3.547-0.34373-7.5225-0.92431-10.664 2.2108 3.3944-0.89791 6.8549-1.6212 10.687-1.7483-6.0425 11.599-15.134 3.1747-19.518 6.6188zm13.792-18.369c0.0159-0.13233 0.036-0.26731 0.0557-0.40068 0.50914-3.4048 2.597-6.676 4.0664-10.436-0.38113 1.8964 0.48741 4.4492 2.0241 5.5269 1.3047 0.91482 5.7159 10.133-0.16096 14.897-2.0627-2.8559-3.1606-5.9207-2.761-11.25-0.99475 3.2444-0.77192 8.0671 2.2142 11.297-4.7192-1.9434-5.9464-5.5316-5.4384-9.6339zm4.1221-10.837c0.0781-0.38873 0.20798-0.75038 0.39619-1.0654-0.1246 0.36088-0.25872 0.7137-0.39619 1.0654z" fill="url(#ak)"/>
  <path d="m200.89 780.05c-4.7052 6.3934-11.053 9.2402-9.266 21.275-0.70725-1.2251 1.2794 1.6892 3.1844 4.7755l0.87255-0.40296c-1.0892-4.3627-2.5537-9.2162 0.77421-13.72-0.48879 4.4034-0.74744 8.8567-0.19268 13.663 13.35-9.6998 1.1452-19.478 4.6274-25.59zm-20.358 20.632c-0.16212 0.0451-0.32692 0.0947-0.48965 0.14434-4.1545 1.2689-7.8483 4.4836-12.268 7.0173 2.2957-0.82874 5.6433-0.21997 7.2743 1.4974 1.3845 1.4577 13.71 5.2471 18.562-2.9738-3.9481-2.0427-7.9772-2.8423-14.554-1.3518 3.8639-1.8452 9.9241-2.4647 14.51 0.66082-3.3037-5.5281-8.0102-6.3917-13.035-4.9942zm-12.757 7.1617c-0.47063 0.1699-0.89778 0.39923-1.2559 0.6928 0.42715-0.22287 0.84252-0.45578 1.2559-0.6928z" fill="url(#aj)"/>
  <path d="m194.69 776.44c7.9334 0.27373 14.104-2.9407 22.436 5.9248-0.52245-1.3146 0.53172 2.0513 1.7715 5.4597l-0.85724 0.4346c-2.747-3.56-5.6462-7.7188-11.243-7.9014 3.7575 2.3473 7.4114 4.9062 10.838 8.3221-15.889 4.4576-15.991-11.181-22.945-12.24zm28.81-3.1754 0.41689-0.29459c3.5718-2.4722 8.3845-3.3763 13.113-5.272-2.0738 1.287-3.6723 4.2906-3.3366 6.6351 0.28496 1.9901-4.3864 14.01-13.844 12.717 0.84599-4.364 2.7174-8.0206 7.9651-12.255-3.8438 1.8868-8.088 6.2567-8.4804 11.793-2.2878-6.0199-0.0465-10.248 4.1661-13.323zm13.53-5.5666c0.42513-0.26382 0.86994-0.4567 1.3224-0.5556-0.43973 0.19686-0.88004 0.37828-1.3224 0.5556z" fill="url(#ai)"/>
  <path d="m168.21 758.85c1.7902 3.8778 2.442 3.2588 4.8987 4.6522 5.4633 3.0986 9.7319 10.943 6.6727 16.981-4.6324-2.5163-6.3704-6.765-8.0046-11.262 1.2501 6.5749 3.5733 9.3187 7.282 11.878-6.5386 0.25-9.4013-4.1994-10.551-9.2862-1.1274-4.9856 0.0763-9.9597-0.29757-12.962zm2.643 38.16c4.4614-4.4356 5.9507-9.7443 15.593-9.7502-2.0928-0.82506-5.6162-4.5825-6.792-6.1309l0.32151-0.13046c3.5935 4.9197 14.163 11.008 23.064 12.999-1.8425-8e-3 -5.158-0.34258-8.1917-1.9387l-4.5004-2.1298c-3.547-0.34373-7.5225-0.92431-10.664 2.2108 3.3944-0.89791 6.8549-1.6212 10.687-1.7483-6.0425 11.599-15.134 3.1747-19.518 6.6188zm13.792-18.369c0.016-0.13233 0.036-0.26731 0.0557-0.40068 0.50914-3.4048 2.597-6.676 4.0664-10.436-0.38113 1.8964 0.48741 4.4492 2.0241 5.5269 1.3047 0.91482 5.7159 10.133-0.16097 14.897-2.0627-2.8559-3.1606-5.9207-2.761-11.25-0.99475 3.2444-0.77192 8.0671 2.2142 11.297-4.7192-1.9434-5.9464-5.5316-5.4384-9.6339zm4.1221-10.837c0.0781-0.38873 0.20798-0.75038 0.39618-1.0654-0.12459 0.36088-0.25871 0.7137-0.39618 1.0654z" fill="url(#ah)"/>
  <path transform="matrix(.10105 0 0 .064 -83.357 901.79)" d="m3479.8 1411.9c-84.663 0-164.05 3.8979-233.01 10.676-0.043 0.01-0.1301-0.01-0.173 0-44.626 4.389-84.55 10.034-118.84 16.603-77.572 14.862-125.4 34.576-125.4 56.281 0 46.13 213.95 83.56 477.43 83.56 8.2923 0 16.339-0.1386 24.528-0.2118 13.176-0.1179 26.164-0.3032 39.037-0.6048 119.37-2.796 224.81-13.261 299.34-28.549 71.167-14.597 114.35-33.512 114.35-54.194 0-10.555-11.534-20.61-31.955-29.91-10.016-4.5615-22.395-8.9284-36.619-13.065-61.642-17.926-160.33-31.449-277.75-37.319-41.685-2.084-85.44-3.2662-130.93-3.2662z" fill="#447821" filter="url(#i)" opacity=".8988"/>
  <path transform="matrix(.15418 0 0 .09764 -268.22 851.47)" d="m3479.8 1411.9c-84.663 0-164.05 3.8979-233.01 10.676-0.043 0.01-0.1301-0.01-0.173 0-44.626 4.389-84.55 10.034-118.84 16.603-77.572 14.862-125.4 34.576-125.4 56.281 0 46.13 213.95 83.56 477.43 83.56 8.2923 0 16.339-0.1386 24.528-0.2118 13.176-0.1179 26.164-0.3032 39.037-0.6048 119.37-2.796 224.81-13.261 299.34-28.549 71.167-14.597 114.35-33.512 114.35-54.194 0-10.555-11.534-20.61-31.955-29.91-10.016-4.5615-22.395-8.9284-36.619-13.065-61.642-17.926-160.33-31.449-277.75-37.319-41.685-2.084-85.44-3.2662-130.93-3.2662z" fill="#447821" filter="url(#ar)" opacity=".6905"/>
  <path d="m200.93 634.15c19.262 8.0521 36.606 27.169 42.748 43.548-25.141 4.3684-59.134-12.286-64.522-39.226-4.3903-14.104-10.827-27.826-27.058-26.577 21.851-7.5846 103.27 7.5823 96.062 54.595 4.9598 6.78 8.3249 14.988 12.488 23.535v-4.4829c-2.7354-1.9116-4.5791-6.0973-4.643-8.8057-2.3348-12.446 7.0191-26.154 16.971-32.661 7.3383-5.3426 11.911-11.29 20.814-10.887-4.4172 0.94342-10.789 3.6121-8.0968 17.277 2.8574 14.501-6.0701 35.187-21.682 38.119 0.38332-11.915-0.53404-26.432 10.887-33.942-13.983 6.5482-13.548 26.413-12.488 40.186 6.7847 14.446 8.7127 32.38 10.407 48.191 12.711-27.859 38.69-45.277 65.874-56.714-28.532 8.4931-56.036 26.979-64.593 46.307-9.8487-27.426 28.284-59.735 60.84-53.475 8.1589 1.4358 16.274-2.4201 25.136-1.9212-15.071 5.4261-15.139 33.783-33.793 50.445-12.006 10.724-21.543 15.06-47.219 11.195-1.8613 3.259-4.7879 7.9238-6.4042 11.207-0.40135 9.2309-0.33767 18.217 3.2021 25.296-5.7392 0.56586-11.349-0.0725-16.651-0.48031 2.343-7.1002 2.173-16.308 3.5223-23.055-2.7752-13.229-15.425-28.677-29.859-30.9 10.259 3.6649 20.394 12.079 25.697 24.816-29.885 12.472-31.764-38.59-51.233-36.344 19.482-2.262 62.314 9.811 53.475 33.382 0.95897 2.0069 1.3128 2.9321 1.9212 4.563 0.73925-24.319-6.4696-57.506-19.052-78.131-5.792-16.944-24.095-33.681-42.748-35.063z" fill="url(#q)"/>
  <path d="m202.62 615.78c8.8969 6.0631 16.44 15.621 21.392 21.872-0.0878-0.32542-0.18096-0.65064-0.28217-0.97864-1.7035-5.5178-5.2729-11.365-9.4742-16.625-3.7735-1.6266-7.686-3.0492-11.636-4.2688zm17.393 6.9705c4.2948 5.8643 7.5693 12.463 9.4922 18.072-0.38179-3.1882-1.1959-6.599-2.2575-9.9785-0.5346-1.7019-1.1316-3.3916-1.7651-5.0433-1.7644-1.0748-3.5904-2.0898-5.4696-3.05zm8.8318 5.2234c3.3802 6.3693 5.1725 12.976 6.4302 19.531 0.78089-4.2406 0.34679-8.9574-1.1227-13.575-0.29205-0.91764-0.63111-1.8266-1.0027-2.7318-1.3707-1.1219-2.8077-2.1959-4.3048-3.2241zm7.613 6.16c2.2108 5.715 3.1987 12.107 3.092 16.991 1.7194-3.6359 1.4846-8.1682 1.2848-12.176-1.3214-1.6827-2.789-3.2877-4.3768-4.8151zm5.2054 5.9078c0.91117 3.4706 2.0438 7.5952 1.519 15.754 2.63-1.7539 2.9504-5.0304 2.7318-8.3574-1.1139-2.6122-2.5474-5.0749-4.2508-7.3968zm5.7638 11.744c-0.22775 2.9494-1.5081 5.4322-3.008 7.8591 1.2055-1.406 2.5334-2.6625 3.8425-3.8305-0.19739-1.3769-0.47714-2.7184-0.83453-4.0286zm8.4835 17.441c-0.12803 0.86137-0.21014 1.7251-0.24617 2.5877 0.24056 0.20382 0.4783 0.40937 0.71445 0.61841-0.0292-0.18536-0.0541-0.37296-0.078-0.55836-0.0992-0.87999-0.2334-1.7617-0.39025-2.6477z" fill="#4a0" opacity=".6101"/>
  <path d="m200.93 634.15c19.262 8.0521 36.606 27.169 42.748 43.548-25.141 4.3684-59.134-12.286-64.522-39.226-4.3903-14.104-10.827-27.826-27.058-26.577 21.851-7.5846 103.27 7.5823 96.062 54.595 4.9598 6.78 8.3249 14.988 12.488 23.535v-4.4829c-2.7354-1.9116-4.5791-6.0973-4.643-8.8057-2.3348-12.446 7.0191-26.154 16.971-32.661 7.3383-5.3426 11.911-11.29 20.814-10.887-4.4172 0.94342-10.789 3.6121-8.0968 17.277 2.8574 14.501-6.0701 35.187-21.682 38.119 0.38332-11.915-0.53404-26.432 10.887-33.942-13.983 6.5482-13.548 26.413-12.488 40.186 6.7847 14.446 8.7127 32.38 10.407 48.191 12.711-27.859 38.69-45.277 65.874-56.714-28.532 8.4931-56.036 26.979-64.593 46.307-9.8487-27.426 28.284-59.735 60.84-53.475 8.1589 1.4358 16.274-2.4201 25.136-1.9212-15.071 5.4261-15.139 33.783-33.793 50.445-12.006 10.724-21.543 15.06-47.219 11.195-1.8613 3.259-4.7879 7.9238-6.4042 11.207-0.40135 9.2309-0.33767 18.217 3.2021 25.296-5.7392 0.56586-11.349-0.0725-16.651-0.48031 2.343-7.1002 2.173-16.308 3.5223-23.055-2.7752-13.229-15.425-28.677-29.859-30.9 10.259 3.6649 20.394 12.079 25.697 24.816-29.885 12.472-31.764-38.59-51.233-36.344 19.482-2.262 62.314 9.811 53.475 33.382 0.95897 2.0069 1.3128 2.9321 1.9212 4.563 0.73925-24.319-6.4696-57.506-19.052-78.131-5.792-16.944-24.095-33.681-42.748-35.063z" fill="url(#p)"/>
  <path d="m160.01 611.01c-2.0564 0.0155-4.1367 0.14061-6.244 0.37824-0.591 0.1557-1.1507 0.32231-1.6751 0.50432 16.231-1.2485 22.669 12.475 27.06 26.579 5.388 26.94 39.377 43.592 64.518 39.224-6.1422-16.379-23.486-35.494-42.748-43.546 5.3551 0.39666 10.684 2.0595 15.694 4.629-15.321-15.653-34.465-27.935-56.605-27.768z" fill="url(#h)" opacity=".5281"/>
  <path d="m359.19 677.18c-7.0316 1.9963-15.493 6.3224-21.518 9.4261 0.3368-0.10311 0.6715-0.20584 1.0086-0.30619-0.8337 0.35078-1.6605 0.71255-2.4916 1.0747l-0.048 0.018c-0.7868 0.40423-1.5395 0.79082-2.2034 1.1227-7.9389 5.9736-15.582 14.431-17.964 22.695-0.094 0.32716-0.1807 0.65227-0.2582 0.97864 7.3168-7.5439 25.879-28.987 43.216-34.51h0.012c0.3662-0.16811 0.7374-0.32959 1.1227-0.4683-0.2931-0.0165-0.5851-0.0227-0.8766-0.03zm-35.555 14.559c-3.2671 1.2848-6.4864 2.8004-9.6123 4.5149l-0.01 6e-3c3.1258-1.6159 6.3438-3.1252 9.6183-4.5209zm-1.393 2.3715c-3.2925 1.7696-6.5258 3.6532-9.6783 5.6497-0.6147 1.594-1.1798 3.2307-1.669 4.8872-0.9948 3.3682-1.674 6.804-1.8252 10.069 2.2202-6.6613 6.7415-14.536 13.172-20.605zm-14.541 8.8738c-1.775 1.2307-3.5167 2.4976-5.2234 3.8125l-0.03 0.0961c-1.3836 4.5993-1.4481 9.448-0.012 13.971 0.8359-6.0937 2.2413-12.168 5.2654-17.88zm-9.252 7.0606c-1.3146 1.1066-2.6056 2.2401-3.8666 3.4042 0.2017 3.5281 0.699 7.2756 2.8038 10.579-0.5248-4.1362-0.243-9.2057 1.0627-13.983zm-5.4936 4.9412c-1.3867 1.3348-2.7366 2.7082-4.0466 4.1187 0.0465 3.4948 0.76185 7.0403 4.3528 9.276-1.1414-6.4275-0.8534-10.358-0.30615-13.395zm-5.6857 5.9258c-1.2455 1.4092-2.4511 2.8561-3.6144 4.3408 2.6866 2.074 5.7444 4.3414 8.4355 6.9585-2.7656-3.5042-5.0812-7.0531-4.8212-11.299zm-5.3315 7.685c-0.90667 1.9978-1.6612 4.019-2.2454 6.0579 2.2878 0.22775 4.5701 0.49453 6.6463 1.1107-1.795-2.3376-3.78-4.497-4.4008-7.1687zm-3.176 10.129c-0.0499 0.29066-0.0954 0.57987-0.1381 0.87057l0.42028-0.72647c-0.0965-0.0469-0.19023-0.0925-0.28218-0.1441z" fill="url(#ag)" opacity=".7738"/>
  <g transform="matrix(.23023 0 0 .23023 -16.595 685.75)" fill="#2ca02c">
   <path d="m1404.2 437.92c5.2368-49.716 31.728-111.09 56.25-133.75l-0.9167-1.6667c-7.6893 7.377-25.909 28.92-29.083 40.833-6.1021-52.491-35.96-57.253-62.917-78.75 21.51 21.697-18.617 76.488 48.333 102.08-3.1042-20.784-9.2245-39.168-16.25-57.083 19.046 15.129 18.388 37.139 18.75 56.667l-8.75 25.833c-6.7801 17.522-6.5318 35.797-5.4166 45.833z"/>
   <path d="m1459.3 299.24c-5.4773-35.439 16.95-53.822 43.92-63.286 26.433-9.2751 54.283-5.8576 70.395-9.782-19.985 12.188-16.211 15.335-22.25 29.587-13.43 31.694-53.441 59.871-88.235 47.016 10.783-26.804 32.819-38.948 56.274-50.676-35.009 10.944-48.506 25.339-60.104 47.14z"/>
   <path d="m1427.8 366.71c29.634 28.996 77.052-0.81873 81.211-8.4967 5.9043-10.899 24.094-17.87 34.873-13.011-23.885-5.2852-44.817-16.372-65.438-17.058-23.636-0.78617-43.38 7.8344-51.235 35.62 15.703-18.29 41.814-22.524 60.104-19.151-29.265 1.1799-45.265 9.0693-59.515 22.097z"/>
  </g>
  <path d="m184.87 740.13c4.6012 2.806 3.7309 3.533 5.1213 6.8144 3.0921 7.297 12.306 13.785 20.317 10.825-2.4826-6.1712-7.5562-8.9655-12.956-11.666 8.0601 2.5198 11.163 5.8297 13.833 10.849 1.261-8.1592-3.9012-12.393-10.111-14.571-6.0858-2.1354-12.495-1.348-16.205-2.2515zm47.449 8.8437c-6.2064 4.9492-13.077 6.0466-14.481 18.132-0.73083-2.7429-4.93-7.7037-6.7004-9.4021l-0.21015 0.38425c5.6458 5.2172 11.745 19.348 12.95 30.794 0.25677-2.3107 0.3182-6.5148-1.2428-10.549l-2.0173-5.9499c0.0833-4.4958-0.0683-9.5632 4.3168-13.046-1.6175 4.1246-3.0257 8.3573-3.7404 13.143 15.414-5.8929 6.1729-18.51 11.125-23.505zm-25.024 14.626-0.51034 0.012c-4.3415 0.14441-8.7445 2.2876-13.671 3.5843 2.4323-0.203 5.5062 1.2557 6.6343 3.3382 0.95759 1.7677 11.873 8.6331 18.696 1.9573-3.2807-2.9994-6.9632-4.8197-13.701-5.0913 4.2109-0.77653 10.224 0.20181 13.839 4.4129-1.7519-6.1972-6.0717-8.2554-11.287-8.2133zm-14.181 3.5963c-0.4986 0.0416-0.97071 0.15192-1.3929 0.34222 0.47042-0.10409 0.93208-0.22092 1.3929-0.34222z" fill="url(#af)"/>
  <path d="m268.3 765.86c-20.442 0-39.611 5.3772-56.262 14.727-0.0104 6e-3 -0.0314-6e-3 -0.0417 0-10.775 6.0547-20.415 13.842-28.694 22.904-18.73 20.503-30.279 47.699-30.279 77.641 0 63.638 51.66 115.27 115.28 115.27 2.0022 0 3.9452-0.19108 5.9224-0.2921 3.1814-0.16267 6.3174-0.41832 9.4257-0.83448 28.823-3.8571 54.281-18.293 72.278-39.384 17.184-20.137 27.61-46.231 27.61-74.762 0-14.56-2.7848-28.431-7.7158-41.261-2.4183-6.2927-5.4074-12.317-8.8418-18.023-14.884-24.73-38.712-43.384-67.065-51.483-10.065-2.875-20.63-4.5058-31.614-4.5058z" fill="url(#o)" opacity=".9554"/>
  <path d="m252.27253,771.02214c-.40923,0-1.05671.0747-1.33439.44505-.26801.35744-.52532.82193-.81537,1.11201-.17388.17382-.35591.66737-.81552.66737-.26534,0-1.14366-.1431-1.33444,0-.35335.26527-.85203.51704-.96375.96387-.14343.57392-.62933.48117-1.03773.88965-.23045.23058-.76956.65591-1.11194.74154-.44767.11186-.84055.22226-1.33448.22238-.37576,0-.89778-.0906-1.26024,0-.5919.14803-.9019.68896-1.40845.81556-.4607.11521-.66938.29947-.88973.5932-.2844.37931-.94593.59306-1.40853.59306-.71021,0-.74104.12963-1.26024.51901-.36874.27659-1.01315.37068-1.48265.37068-.63034,0-1.52334.0203-2.07579.29651-.37603.18824-.87461.25954-1.03778.66744-.26029.65098-.47862.72117-1.11194,1.03811-.36846.1843-1.18071.43909-1.48278.74121-.23029.23053-.35818,1.05113-.66702,1.11231 .0217.0131.48577.41785.59299.44475 .45583.11411 1.04889.0742 1.55681.0742 .61382,0 1.14952.0742 1.77917.0742 .54131,0 .86312-.37075 1.33432-.37075 .6311,0 1.25931-.00025 1.8533.14831 .49534.12377.96199.29657 1.48269.29657 .5512,0 .86204-.0302 1.33434-.14832 .59962-.14994.96053-.11932 1.26038-.51893 .26365-.35178.48586-.56831.81545-.81569 .26329-.1975 1.2603-1.26039 1.48259-1.2605 .55257,0 .95627-.16469 1.48253-.29645 .36175-.0905.37595-.96289.74149-.88976 .21476.043.65528.5777.88948.51901 .20388-.051.45628-.10642.66735-.074s.38204.1934.44478.44476c.12352.49411.26594.47826.51891.81557 .12383.16532.73949.89692.66714,1.18636-.088.35242-.17197.94322-.074,1.33446s.11683.82696.29651,1.18638c.12004.24026.45937.79936.51887,1.03793 .11618.4649.37453.45252.59311.88976 .26035.5209.13091.74785-.0741,1.26039-.17528.43843-.43086.94586-.29661,1.48293 .0277.11075.0465.25969.0742.37074 .0829.33175.1303.51137.22241.59302s.22106.0742.59293.0742c.43751,0 1.04051.002 1.26027.22232 .29725.29737.59316.46437.59316.88974 0,.30611-.1692,1.12262-.44492,1.26045-.19926.0998-.81534.63507-.81534.96381 0,.41295.074.87906.074,1.26044 0,.0833-.0201.21602 0,.29669 .12306.49227.22783,1.1226.44495,1.55694 .17076.3417.55403.64382.74127,1.11219 .16538.4138.18179,1.03089.37067,1.40875 .20863.4175.41748.761.59303,1.11208 .20796.41605.33309,1.22289.66715,1.55711 .39372.39372.55117.66077.88979,1.11208 .29048.38752.65945.88198.96345,1.18625 .27022.27035.54584.61993.88986.96388 .708.70822 1.1354,1.12387 2.0015,1.55706 .44346.22184.95863.44221 1.40851.66725 .50834.25431.9382.59256 1.33432.88975 .45058.33793.91896.82661 1.55687.66725 .55292-.13828 1.4037-.0345 1.92749-.29668 .1722-.0861.36189-.14212.51882-.29639s.29034-.38313.14826-.66747c-.11553-.23102-.37067-.60627-.37067-.96371 0-.60754-.14824-1.15427-.14824-1.77938 0-.44292-.0265-.78386.0742-1.18644 .0795-.31826.102-.77771 0-1.18618-.12558-.50282-.0236-.98426-.14826-1.48296-.10356-.41419-.0741-.94766-.0741-1.40861 0-.4321-.0246-.79122.0741-1.18627 .11615-.4645.0741-.94883.0741-1.40876 0-.39435-.066-.83199.0742-1.11218 .14305-.28631.33041-.97516.74121-1.11225 .34677-.11549 1.55689-.37758 1.55689-.81544 0-.48828-.0465-.85289-.14838-1.26044-.11704-.46855-.42444-.93026-.14811-1.48289 .31741-.63531.93918-.80756 1.33433-1.33456 .22499-.30015.61462-.61471.9636-.96393 .26238-.2622.83827-.49019.96386-.74138 .16256-.32527.37072-.80956.37072-1.18637 0-.26544.11526-1.20269-.14837-1.33456-.3837-.19178-.81539-.12442-.81539-.59314 0-.31155.3362-1.03262.2224-1.26044-.17983-.35986-.38034-.66968-.96383-.8155-.45978-.11498-1.09192-.20364-1.55662-.29656-.28153-.0563-.92206-.13906-1.03799-.37069-.13203-.26422-.26075-.98327-.51881-1.11231-.42068-.21034-.89565-.22231-1.40862-.22231-.12971,0-1.72917-.3833-1.18601-.5189s.52397-.2328.74126-.66743c.12328-.24656.37086-.6669.14816-.96382-.31012-.41384-.7323-.58427-1.03785-.88981-.40552-.40563-1.34451-.59306-1.92733-.59306-.0831,0-.14194.0201-.22238,0-.32855-.0822-.63474-.41229-.88969-.66732-.37783-.37815-1.06243-.54369-1.55683-.66725-.37408-.0935-.60317-.41039-1.03778-.51911s-.88827-.11064-1.33432-.22233c-.58247-.1457-1.20409-.25578-1.77929-.37087-.21361-.0426-1.72186-.15432-1.63091-.51887 .0557-.22308.34206-.74139.66715-.74139 .44606,0 .97302.0872 1.4086,0 .56844-.11376 1.15172-.22261 1.77929-.22244 .57248,0 1.14864.037 1.7048.14826 .6953.13917 1.46541.0512 2.14999.22243 .53778.13443 1.3663.22238 1.9275.22238 .79046,0 1.71112-.0742 2.52048-.0742 1.23631,0 2.34076-.29646 3.55839-.29646 .70454,0 .94533-.42954 1.48264-.519 .2723-.0454.50392-.12395.59299-.22256s.0118-.20097-.37067-.29656c-.4649-.11619-1.00106.0461-1.48258-.0741-.3619-.0904-.93665-.22225-1.3344-.22225-.57213,0-1.06186-.0742-1.63091-.0742-.40727,0-.7748.11939-1.18607.22233-.54181.13558-1.06252,0-1.63096,0h-1.77927c-.79644,0-1.63316-.14813-2.37211-.14813-.48175,0-.95296-.0742-1.33448-.0742-.7573,0-1.63523-.002-2.22402-.29657-.54894-.27468-.94706-.44081-1.55682-.59324-.28183-.0705-.93527-.81568-1.1861-.81568zm47.29686.88975c-.92925.19362-1.88855.30536-2.743.51917-1.08065.27013-1.7471.76788-2.74275.51889-.6928-.1732-1.3509-.22562-2.07585-.37075 .2353.23545.1221.54233-.0741.81556s-.5177.48111-.6672.5932c-.0215.0164-1.7094.20495-1.77925.22248-.4017.10041-.24515.37082 0,.66725s.62105.56311.74135.59314c.91665.22932 2.07355.77731 2.8912,1.18625 .35135.1758.51595.31457.593.51906s.0675.49234.1482.81562c.15945.63799.2528.83062.8155,1.11213 .49225.24617 1.59685.29662 2.1499.29662 .89615,0 2.2213.44402 2.89115.6672 .5647.18825 1.40315.81025 1.77915,1.18632 .39055.39077.76315.62199 1.18622,1.18636 .4899.65338.9858,1.01186 1.6308,1.33446 .5576.27892 1.4293.26989 1.7793.44481 .6367.3185 1.4104.81754 1.8533,1.26051 .5225.5227.9378,1.0119 1.3344,1.40875 .5151.51517.6388,1.09076 1.2602,1.557 .6362.47733 1.147.85045 1.631,1.33463 .5614.56142 1.063.84056 1.5569,1.33444 .3884.38862.773.95317 1.4085,1.11225 .8645.21614 1.4142-.33504 2.1499-.51901 .3602-.0903 1.6646,1.26705 1.8532,1.40881 .4373.32771.8595.97771 1.0379,1.33452 .203.40617.8906.96503 1.1862,1.26043 .5712.57131.7068.68717 1.4085,1.03796 .2875.14378.6155.16758.8894.0741s.4632-.29581.5191-.51911c.1549-.61963.3926-.9501.2223-1.63102-.1002-.40125-.038-.85803.1483-1.18632s.4897-.49653 1.0379-.22243c.3916.19605.6407.83681.8156,1.18638 .2463.49313.593,1.14527.593,1.85339v1.70543c0,.26999 3.1179,2.00622 3.1875,2.07608 .3998.39949.9385.65035 1.4085.96374 .5174.34506.8518.68548 1.5568,1.03807 .3997.19993.6152.57079.7415.96381s.1557.78549.074,1.11213c-.091.36646.2183,1.20322.074,1.7795-.1117.44702-.1943.80132-.1483,1.038 .045.23668.237.34089.7412.59307 .7314.36573 1.0078.94595 1.7791,1.40875 .4035.24218.72,3.07107.9638,3.55894 .281.56189.5963,1.32149.4448,1.9277-.1644.65788-.4448,1.14597-.4448,1.85356 0,.5043-.3953,1.21068-.5188,1.70533-.1179.472-.3423.97035-.445,1.33457s-.083.60422.445.81555c.6866.27481 1.8166.59313 2.5203.59313h2.2241c.3535,0 .7104.70978 1.0378,1.48288s.6025,1.60433.6673,1.92775c.1371.68624.3166.98389.7413,1.40868 .5568.55715 1.371,1.03611 1.5568,1.77944 .212.84868.5049,1.06586.1483,1.77945-.1736.34727-1.3918.62183-1.7792.81558-.5561.27816-1.4909.37965-2.2982.59318-.4034.10675-.77.26266-1.0379.44482s-.4448.42301-.4448.74144c0,.7258.2922,1.0292.5932,1.63112 .3274.65516.6301,1.16126 1.0378,1.70532 .067.0886.1439.2182.2224.29655 .4522.4523.4046,1.15739.8155,1.70528 .5666.756.8463,1.39623 1.2602,2.22441 .3986.79724 1.298,1.41021 1.7791,2.37241 .2688.53776.7415,1.56169.7415,2.29855 0,.58132.3068,1.15281.4447,1.70533 .1054.42131.533.83055.9638,1.11218s.8674.49481 1.2602.59307c.6938.17349 1.4985.0741 2.2241.0741 .7684,0 1.239-.22227 1.9274-.22227 .3968,0 .9599-1.03286 1.1862-1.33468 .4952-.66061.7837-1.05872.9636-1.77933 .097-.38864.1983-.77628.2226-1.18649s-.054-.79531-.3708-1.11201c-.2697-.26994-.3157-.53595-.2966-.81574s.1032-.55742.2966-.81546c.1038-.13858.1482-1.91525.1482-2.00188 0-.0719-.9413-1.25533-1.1119-1.48282-.4164-.55533-.5218-1.26586-.8155-1.8536-.3168-.63382-.3707-1.19015-.3707-2.00183v-1.85363c0-.8482-.3879-1.12926-.8155-1.55695-.4501-.45019-.4317-.83767-.593-1.48293-.1107-.44268-.06-.70222.074-.88964s.3918-.31248.6673-.51912c.4563-.34217.5932-1.06405.5932-1.63102-.0002-.40927-.1285-.82337-.1483-1.11224s.044-.51153.3706-.59307c.3004-.0753.6406.17187.8895.44476s.4172.60563.519.7415c.3862.51513.4653.81233.9639,1.18625 .6696.50251 1.6467.74937 2.224,1.03813 .6101.30519 1.1681.61662 1.6308.96375 .5732.43013 1.052.82975 1.4085,1.1862 .3404.3406.4396,1.00653.7413,1.40881 .3162.42167.6711.52271 1.0378.88982 .3959.3959.621,1.16785.8157,1.55694 .2154.43134.3656.5988.5187.59312s.3437-.20895.6672-.37068c.2047-.10249-.3185-1.64525-.3705-1.85363-.1448-.57942-.962-1.40493-1.1861-1.85357-.2394-.47872-.1622-.68346 0-.66738s.426.20376.593.37076c.4904.49053.9583.65654 1.3343,1.40875 .1629.32567.782.78207 1.1121,1.11218 .4831.48336.4161.92354.593,1.63125 .062.25027.2187.3101.3707.2964s.3401-.13826.519-.2964c.3574-.31664.725-.78339.8153-.96388 .2216-.44354.288-.93835.4447-1.40874 .2043-.61281.1045-1.14177-.074-1.63119s-.4775-.93413-.6673-1.40876c-.1697-.42427-.4321-.79438-.6672-1.1863-.7129-1.18823-1.3031-2.30974-1.9273-3.55883l-.074-.14836c-14.6818-24.39405-38.159-42.79942-66.12642-50.78813zm-72.35377,9.7869c-.3732,0-.9684.70688-1.18606.81574-.4773.23863-.97563.78737-1.40868,1.11201l-1.26005.96388c-.48976.36745-.81465.44493-1.5569.44493-.70403.00013-.71974.32272-1.26025.59318-.63207.31607-1.21659,1.32126-1.48262,1.85346-.25071.50164-.61054,1.12949-.88964,1.40874-.33921.33946-.94402.54616-1.33428.74151-.46554.23256-.29659,1.15148-.29659,1.63112 0,.32052-1.24943.37081-1.33428.37081-.17011,0-1.15535-1.45203-1.2604-1.55712-.52431-.52456-.25138-.61887-1.03788-.81561-.42577-.10643-.7719-.0701-.96376-.14827s-.29643-.28788-.29643-.81551c0-.572.68472-.8331.96376-1.11224 .33916-.33916 1.00708-.57773 1.33431-.74138 .47701-.23863.67808-.67796 1.0378-1.03806 .44694-.44702.519-.9611.519-1.63113 0-.20902-1.05478-.63861-1.26024-.74138-.47068-.23546-.76957-.75556-1.33444-1.03806-.0104.006-.0639-.005-.0741,0-10.62893,5.97242-20.15194,13.59993-28.31882,22.53956-.091.45801-.13366,1.00883-.29653,1.3345-.31118.62286-.74788.74804-1.18616,1.18643-.32811.3281-.50225.94143-.74131,1.26049-.34417.45883-.86602.6437-1.26018,1.03789-.38207.3821-.37064,1.25112-.37064,1.77956 0,.50007.22108.68415.44483.66714s.41805-.2431.59303-.59308c.21645-.43318 1.30107-1.10563 1.70507-1.40874 .55425-.41594 1.34369-.68566 1.63089-1.26045 .25974-.51946.50746-.84333.66716-1.48281 .21235-.84982.68221-1.21624 1.112-2.07618 .15356.47994.40469,1.07197.88959,1.55711 .22181.22199.32556.54342.29662.81564s-.19068.52952-.29662.74127c-.16682.33399-.83814.8383-1.18619,1.18641-.42149.42174-.6534.4174-.88945.88981-.25489.50986-.67839.63747-.81545,1.18615-.12817.51263-.39074.89605-.51895,1.40862-.18285.73191-.0615,1.1737-.59317,1.70545-.36037.36055-.5644,1.07167-.66723,1.48293-.18225.72945-.50955.91972-.96368,1.26025-.49474.37146-.67351,1.13765-.81551,1.70549-.18563.74301-1.06969,1.54625-1.4085,2.22426-.29105.5823-.51957.66864-.8154,1.2605-.20533.41115-.23516,1.08898-.37078,1.63102-.15028.60175-.48894,1.17104-.88948,1.70526-.0664.0888-.21807.14414-.29641.22249-.39586.39598-.66731,1.30957-.66731,1.85357 0,.50644-.68289,1.39711-.81544,1.9277-.1805.72182-.32205,1.31135-.59318,1.8535-.33445.66929-.65125.93228-.96368,1.55706l-.81545,1.6312c-.21803.43653-.22235,1.06311-.22235,1.63123 0,.4994-.17401,1.28933-.29643,1.77933-.13585.54325 0,1.29268 0,1.85369 0,.72675-.25993,1.14951-.66723,1.55694-.47755.47758-.78285.75915-.96374,1.48294-.1145.45812-.421,1.06439-.66725,1.55682-.32576.65187-.36534,1.03071-.81557,1.63126-.33929.45263-.58548,1.15639-.74118,1.77938-.16542.66205-.21921,1.17961-.51895,1.77944s-.36688,1.02284-.51885,1.63113c-.14736.58989-.39531,1.01311-.59309,1.4088-.286.57189-.29647,1.18541-.44492,1.77951-.16181.64792-.22235,1.42576-.22235,2.07578 0,.56992-.2965,1.26604-.2965,1.9278 0,.68362-.0716,1.24979-.22235,1.85363-.14551.58231-.0743,1.2046-.0743,1.85357 0,.92261-.22233,1.80501-.22233,2.74331 0,.72136.28494.84311.44492,1.48288 .14068.56356.0844,1.22787.22229,1.77926 .0674.26943.14828.48892.14828.81586 .224.89658.81548,1.16166.81548,2.07589 0,.7187.0755,1.04298.2224,1.6312 .1434.57367 0,1.33329 0,1.92769s-.22965,1.3632-.37063,1.92774c-.0192.076 0,.14392 0,.22238 0,.70922-.22234,1.4599-.22234,2.22426 0,.2177.43864,1.24847.59297,1.55707 .28609.57235.4416,1.39584.59295,2.00205 .22391.89593.4764,1.67233.8156,2.52077 .26987.67507.30203,1.20032.59289,1.92751 .19036.47573-.0291,1.36605.0743,1.77953 .14436.57753.14832,1.25423.14832,1.85355 0,.67566.14826,1.21085.14826,1.8535s.0798,1.20931.22231,1.77946c.17045.68237.0743,1.18645.29662,1.63113 .3761.75272.72923.91543.88954,1.55717s.382,1.23123.51904,1.7794c.16018.64154.81294,1.17707.96368,1.77954 .20692.82786.95665,1.56522 1.33427,2.44672 .23383.54573.23724,1.21556.44484,1.63115 .19701.39383 1.10745.73791 1.40849.96375 .28139.21111.27993.44836.37069.66737s.24185.41262.66731.51891c.50918.12736.84509.63403 1.18589.88971 .44891.33687-.23455-1.08682-.37042-1.63107-.15401-.6157-.77205-1.26204-1.03803-1.70534-.24859-.41479-.0344-1.40358-.22242-1.77951-.30587-.61209-.58028-1.13529-.74128-1.77927-.17136-.68558-.49664-1.31982-.66725-2.00196-.17376-.69611-.43743-1.17169-.7412-1.7794-.36321-.72664-.8154-.99314-.8154-1.85363 0-.55254-.4239-1.51519-.6673-2.00182-.25603-.51215-.14819-1.54342-.14819-2.15024 0-.59568-.22242-1.08266-.22242-1.70513 0-.73528-.20106-1.47116-.37073-2.15022-.156-.62466-.37053-1.18331-.37053-1.85367 0-.49546.12967-.66316.22229-.59314s.14824.39443.14824.81575c0,.46124.62562.94483.74134,1.40862 .16346.65376.27771,1.33304.44488,2.00188 .13142.52602-.14344,1.27989 0,1.85366 .16396.65645.51895,1.03699.51895,1.77936 0,.61993.22225,1.07025.22225,1.63124 0,.40581.49211,1.22689.59309,1.63106 .15906.6364.28755,1.29853.44473,1.92782 .13322.53242.43668,1.22743.59309,1.85354 .12717.50864.44483,1.13656.81544,1.63107 .32255.43003.38421,1.21304.59318,1.63112 .33188.664.49124,1.05667.81536,1.70524 .26311.52613.45645.93617.59311,1.48297 .15464.61872.69232,1.45881.96371,2.00191 .25841.51656.54854,1.08223.66725,1.5569 .17526.70156.34571,1.50709.66725,2.15018l.7412,1.48288c.32362.64746.74727,1.11788 1.18612,1.55706 .53613.53607 1.28019.79493 1.9275,1.11194s1.16837.67025 1.3343,1.33469c.14369.57421.61138,1.2227.81548,1.63118 .30198.60394.86936,1.16599 1.33446,1.63118 1.23069,1.231 2.26917,2.54335 3.85493,3.33657 .537.26844.89403.42717 1.55692.59309 .66838.16715 1.21198.23545 1.77913.51885 .57175.28617 1.10326.37082 1.7791.37082 .26882,0 .94788.62612 1.40854.74143 .41078.10271 1.07569-.13906 1.63099,0 .76321.1908 1.00485-.4902 1.77911-.29658 .71701.17921 1.81585,1.82543 2.44642,2.29843 .55841.41887 1.13994.86058 1.77916,1.40875 .58467.50133.99117.78531 1.70508.96376 .56877.14246.88616.22069 1.33429.44479 .47972.24004 1.28595.0742 1.85355.0742 .54373,0 1.08862.79232 1.40848,1.11215 .75984.76001 1.65397,1.19236 2.14967,1.85366 .43559.58102.68504,1.35236 1.1862,1.85358 .45105.45098 1.08358,1.00937 1.63093,1.55696 .45291.45299.96959.76523 1.11202,1.33439 .15216.60909.88331.88673 1.33434,1.11222 .49726.24863 1.16756.40312 1.63093.51901 .41345.10352 1.08224,1.01571 1.4085,1.26047 .24892.1869 1.52686-.14814 1.92754-.14814 .52211,0 1.16325.76022 1.4827,1.18618 .36388.48551.59034.88973 1.26022.88973 .68998,0 1.26743-.30377 1.70498-.74161 .34713-.34692.44475-1.28896.44475-1.7793 0-.45584 1.1773.58427 1.40856.81563 .36179.36188.83586.91017 1.11208,1.18621 .52142.5217 1.2314,1.20303 1.48264,1.7054s.10588,1.17561.37067,1.70526c.29578.59201.53718.93851.88957,1.40862 .3758.50116.37065.90516.37065,1.70524 0,.64374.14827,1.15179.14827,1.77948 0,.54883-.46867.76307-.59303,1.26053-.14886.59519-.37067,1.01087-.37067,1.77941 0,.53305-.96372,1.06883-.96372,1.85354 0,.59326.59467,1.48947.74126,2.07606 .1682.67307.35585,1.52737.66724,2.15015 .35886.71794.91539.6221 1.11197,1.4087 .16886.67544.21193,1.36672.37072,2.00185 .14938.59829.52454.83765.66719,1.40875 .12415.49714.50614.95104.81552,1.26042 .38217.38223 1.03351.75897 1.55669.88975 .94787.23694 1.29849.61927 1.77913,1.26049 .42229.56308.63542,1.16228 1.26028,1.63118s.89619.52522 1.33427.96378c.10004.1.17914.144.2967.22243 .59132.3944.75451.89624 1.48265,1.26046 .59068.29553 1.09676.79128 1.63083,1.1122 .6773.40634 1.03073.70059 1.7052,1.03793 .58045.29042 1.02647.84682 1.55671,1.11211 .57715.28866 1.00426.52701 1.70509.66736 .56756.11353 1.29535.32381 1.77935.44491 .73478.18368 1.4403.31247 2.0015.59305 .52721.26359 1.10416.88189 1.4085,1.18652 .43803.43798 1.17183.7712 1.70509,1.03776 .40252.20161.95799.55325 1.33436.74151 .74954.37488 1.04422.91306 1.70504,1.40858 .50903.38201.8567.85706 1.26014,1.26056 .49181.49211.78908,1.15984 1.18616,1.55679 .474.47438.67229.98412.81552,1.5571 .17965.71928.67551,1.12875.96371,1.70541 .28421.5685 1.10205.90102 1.48259,1.40872 .36915.4922 1.0901.71944 1.48272,1.11214 .51547.5156.9675.67223 1.40865,1.26045 .42858.57169.88761.73945 1.18603,1.03799 .42137.42154 1.03119.6269 1.40852.81549 .11345.0568.18307.10532.29657.14847 3.13808-.16055 6.20033-.40525 9.26654-.81571 .0245-.0591.1307-.0782.14845-.14825 .1952-.78176 1.14915-1.39036 1.5566-2.0019 .42165-.63254 1.0903-.70728 1.631-.81555 .6431-.12861.9279-.55746 1.40845-1.03793 .4903-.49048.959-.9574 1.40845-1.55705 .44355-.59142.60285-1.00147.96385-1.48276 .42715-.56981.51705-1.10851.81545-1.70539 .3415-.68323.70225-1.20401 1.2604-1.48295 .6489-.32477.83575-.82053 1.4085-.96363 .76565-.19169 1.09755-.49703 1.77895-.66749 .5523-.1381 1.46075-1.46075 1.77935-1.77933 .4679-.46826.7865-.77692 1.2601-1.40881 .1749-.23322.31635-.53864.51905-.74149 .15675-.19607.28805-.32293.44485-.51908 .263-.32877.27505-1.39629.37055-1.77924 .13615-.54499.41345-1.27185.66725-1.77961 .26085-.52177.1751-1.23935.4449-1.77934 .30015-.60034.48895-1.12641.7413-1.63118 .28202-.5643.0923-1.22248.37052-1.77942 .2863-.57266.4573-1.13704.6672-1.55703 .3006-.60145.1916-.7999.9636-1.18615 .4129-.20641.8366-.91082 1.1862-1.26048 .3263-.32632.5083-1.3128.6673-1.63119 .278-.55619.9754-1.04968 1.3344-1.40888 .2839-.28385.5519-.9225.8155-1.1862 .3154-.31532.3644-1.23613.4447-1.55697 .1281-.51164.092-1.11086.2225-1.63111 .1432-.57333-.4165-1.0097-.6672-1.26063-.4758-.47576-.7943-1.09598-1.4085-1.55695-.5283-.39635-.8965-.6-1.1861-.88967-.3812-.38117-1.0574-.56563-1.557-.81551-.4262-.21336-.8151-.29654-1.4826-.29654h-1.92747c-.67605,0-1.0323.14824-1.63095.14824-.6387.00011-1.0664.1483-1.70485.1483h-1.7792c-.532,0-.9333-.29654-1.55695-.29654-.6387,0-.69595-.43367-1.0378-.88985-.3059-.40817-1.1174-.51891-1.6309-.51891-.69675,0-1.3418-.0741-2.1497-.0741-.9336,0-1.08835.24747-1.77935.59303-.489.24469-.95625.58567-1.2604.88984-.3541.35421-1.13605.57321-1.55655.74139-.553.22124-1.25864.13025-1.77929,0-.35465-.0888-.4637-.32298-.51897-.59314s0-.61036 0-.96387c0-.68658.40385-.99688.81545-1.40862 .26777-.26798.22252-1.21437.22252-1.63118 0-.82848.0897-.93246-.22252-1.55706-.26808-.53624-.81268-.73872-1.11198-1.03797-.3547-.35486-.62192-.9929-.96372-1.33464-.32683-.32671-.6665-.9625-.88953-1.40869-.22117-.44239-.85027-.68455-1.26042-.88981-.50978-.25482-1.2858-.33997-1.70493-.44473-.51262-.12825-1.2477,0-1.7793,0h-1.70496c-.62791,0-1.11421.14835-1.70513.14835-.44263,0-.86956.29638-1.48263.29638-.48319,0-.93034-.67202-1.26014-1.11216-.43251-.57662-.96289-.66613-1.3344-1.03797-.39651-.39672-.87565-.50475-1.18624-.81555-.36782-.36807-1.37612-.548-1.85324-.66723-.70114-.17528-1.28823-.34767-1.77928-.59319-.67632-.33833-.70205-.66308-1.03779-1.33453-.28567-.57156-.51906-.88714-.51906-1.48286 0-.47205-.28811-1.24382-.44471-1.55706-.11316-.22642-.29895-.47376-.37065-.59309-.22945-.45923-.0315-.71315.0742-.88973s.14346-.26084-.29651-.37072c-.0534-.0135-1.08122.95928-1.18617,1.03805-.46862.35149-.82055.27914-1.48271.44482-.97665.24429-1.07982.20156-1.92726-.22242-.35261-.17631-.41105-.3858-.51903-.519s-.20957-.20706-.74131-.0741c-.54131.13532-.94377.509-1.40862.74141-.52448.26237-.79597.31922-1.26024.66729-.47939.3597-1.33577.63131-1.77923.96382-.409.30693-1.49426-.26533-1.70503-.37063-.5559-.27833-.57102-1.24691-.66714-1.63114-.12988-.5192-.27795-.58239-.4449-.44491s-.36979.51744-.51882.81557c-.19168.38352-.47016.49152-.74129.51901s-.49534-.0252-.74151-.14841c-.0694-.0348.0743-1.55781.0743-1.77929 0-.28909-.93411-1.08243-1.03792-1.18641-.28073-.28068-.4582-.21288-.59305,0s-.24442.56338-.37067.81557c-.28872.57789-.30119,1.28412-.44478,2.0019-.12141.60711-.14821,1.24145-.14821,1.85376 0,.42396-.36748.73804-.66712,1.03797-.27859.27862-.32378-.10784-.29664-.66742s.15138-1.24484.074-1.63112c-.12475-.62452-.36569-1.16643-.51887-1.77931-.12732-.50938-.10211-1.01988-.29662-1.40876-.1854-.37112-.51177-.0621-.8154.37067s-.61903,1.02333-.74116,1.18627c-.47376.63169-1.49269,1.22419-1.85329,1.70542-.17065.22725-1.13759.60567-1.40864.74126-.62316.31155-1.4072,1.24083-1.92748,1.63106-.49485.37143-.44473,1.42534-.44473,2.00202-6e-005,.72723.24356.62465-.14832,1.40864-.18476.36966-.48312.35209-.74143.22242s-.42033-.34621-.51881-.44479c-.41224-.41222-.73292-.59101-1.33448-.74149-.65707-.16422-1.16739.16212-1.70499.29647-.72668.18193-1.38878.49569-2.07574.66739-.55651.13929-1.36222-.0253-1.85341-.14815-.41587-.10396-.81134-.66325-1.1861-1.03813-.47246-.47266-.63563-.62506-1.11194-1.26051-.36079-.48123-.47764-.82145-.96374-1.18616-.59689-.4479-.72965-.19885-1.0378-.81569-.2649-.52995-.44375-.88851-.74139-1.18627s-.22237-1.04116-.22237-1.63106c0-.57768-.14839-1.30572-.14839-1.92767 0-.6-.11837-1.21515-.22231-1.63118-.13018-.52111-.074-1.26058-.074-1.77953 0-.43649-.74146-.8711-1.11215-.96374-.61451-.15364-1.04856-.29649-2.0014-.29649h-2.224-1.77921c-.44627,0-.55887-.0943-.81542-.22259-.10161,0-.66742-1.56422-.66742-1.77931 0-.64391-.14809-1.15171-.14809-1.77959 0-.61519-.11301-1.19339-.22244-1.63099-.12085-.48358-.081-1.06543-.22252-1.63126-.12807-.51266 0-1.24769 0-1.7794 0-.643.14834-.94975.14834-1.63118 0-.45625.0742-1.09494.0742-1.63112 0-.68982-.38902-1.19546-.96374-1.48282-.50169-.25105-1.1065-.14836-1.70509-.14836-.61247,0-1.00076.15753-1.55673.29643-.63001.15764-.93932.86547-1.18608,1.11244-.42004.41987-.45703,1.08647-.59309,1.63107-.1303.52073-.0742,1.26051-.0742,1.77953 0,.29061-.6508,1.12071-.74133,1.48259-.16429.65732-1.06555,1.05196-1.48265,1.26046-.61835.30953-1.68359-.0633-2.14974-.29649-.38146-.19086-1.0618-1.29217-1.26036-1.55686-.32058-.42773-.67301-.74733-.96372-1.03823-.39574-.39574-.75257-.60805-1.186-1.18621-.3372-.44971-.58156-.94071-.74149-1.26048-.28102-.56221-.35916-.94074-.6671-1.55703-.27927-.5587-.64615-1.14394-.96377-1.77931-.35071-.70153-.36285-1.03017-.81553-1.48288-.46861-.46888-.59301-1.12268-.59301-1.77959s-.22239-1.34916-.22239-2.00189c0-.59545-.22242-1.15661-.22242-1.77927 .00012-.59583 0-1.15682 0-1.77942 .00012-.55026.3707-1.004.3707-1.63116 0-.68425-.14828-.98725-.14828-1.6312 0-.7741.0622-1.15645.37072-1.92776 .19853-.49652.76954-.87186.96372-1.26039 .23318-.46648.47933-.81198.81553-1.26042s.86147-.71645 1.40849-.88973 1.11396-.3156 1.63083-.44477c.80387-.20115 1.47992-.11205 2.22408.074 .80667.20177 1.59442.29664 2.44632.29664 .41032,0 .60745.20144.8154.37065s.41182.32348.81548.22247c.41103-.1029.29652-1.42967.29652-1.77947 0-.41962-.16379-.64003-.14819-.8155s.20245-.32369.59306-.51917c.68369-.34176.78389-.44479 1.63098-.44479 .74823,0 1.44801.14835 2.14963.14835 .4157-5e-005 1.02016.47309 1.40864.66722 .37806.18914.6137.19089.88958.22248s.52782.13518.81549.519c.39424.52577.95803.88403 1.33429,1.2604 .41099.41105 1.19609.63505 1.55688.81551 .26438.13236.22144,1.47911.29666,1.77952 .14306.5728.48254,1.03945.74116,1.55706 .3612.72239.53042,1.51119.81544,2.22438 .20419.51032.39558,1.01334.59318,1.4087 .3119.62415.49153.91307 1.03767,1.18627 .4498.22473.91447.24706 1.40864.37061 .58536.14642 1.0603-.37583 1.33446-.74145 .21128-.28179.15393-.7054.074-1.11209s-.23179-.80656-.37062-1.03804c-.4385-.73114-.30718-1.44034-.59297-2.29838-.22524-.6759-.69309-1.31954-1.03805-1.77948s-.40776-1.26069-.66711-1.77941c-.27697-.55395-.45142-.98984-.59306-1.55717-.13954-.55835-.17617-1.1496-.29648-1.63112-.18596-.74356.24653-1.35846.74116-1.85343 .36705-.36696.41543-.6237.51908-1.03808 .59247-.59267.91008-1.30094 1.26024-2.0017 .29887-.59834.44481-1.08332.44481-1.77957 0-.3642.33618-.74515.74131-1.11218s.88095-.72969 1.11208-1.03796c.43055-.5742 1.02113-1.15314 1.33431-1.77943 .26413-.52843.78746-.92556.96377-1.63113 .12068-.48358.081-1.06537.22241-1.63118l.44465-1.77939c.15163-.60592.1444-1.12752 0-1.70537-.14063-.56298-.37522-1.12145-.59305-1.55701-.29393-.58826-.70095-.92337-1.03778-1.26049-.2656-.26562-.22229-1.35321-.22229-1.77927 0-.37804 1.13382-.37081 1.48253-.37081 .54112,0 1.18263-.35118 1.55681-.44488 .34632-.0866.82923-.91711 1.03774-1.33456 .26068-.52137.43797-1.01029.59317-1.63124 .16765-.67103-.14821-1.18915-.14821-1.77927 0-.5068.56178-1.05947.9636-1.26043 .57807-.28918.92278-.51919 1.63097-.51919 .68621,0 1.26468.14831 1.92747.14831 .79216,0 .96906-.23308 1.26025-.81544 .21967-.43944.14826-1.25571.14826-1.77951 0-.60065-.0379-1.18921-.14826-1.63125-.09-.35997.0706-.72719.14826-1.03794-.0994-.39829.71484-1.60438.81546-1.70518 .38715-.38731.81416-.77785 1.33448-1.03808 .44559-.22284.96221-.59156 1.40862-1.03795 .48058-.48092.89259-1.04105 1.18595-1.33456 .43408-.43434.49637-.867.88963-1.26049 .1854-.18535.10102,1.3551 0,1.55701-.1444.28891-.0706.49225.074.74154s.38557.50385.44486.74133c.0966.38567-.0637.64441-.0741.81562s.0715.29662.59299.29662c.73121,0 .91682-.20253 1.18624-.74156 .28738-.57506.8026-.63907 1.33425-1.03799 .40263-.30202.6303-.77836 1.03795-1.18632 .47908-.47925.80956-.5849 1.26024-1.18625 .38796-.51714.90543-.52688 1.48259-.81551 .81115-.40581.43982-.9626 1.33443-1.18631 .55212-.13814.90018-.61432 1.11198-1.03796 .22152-.44289-.37065-1.08389-.37065-1.55704 0-.7558-.20427-1.03864-.59296-1.55695-.20989-.27978-.41414-.33066-.59312-.29669s-.30074.15244-.44483.29669c-.35332.35343-.51893,1.26014-.74126,1.70519-.30936.61858-.15375,1.02342-.66734,1.4088-.37541.28154-1.36551-.76492-1.63097-.96392-.46538-.34923-1.16247-.44488-1.77896-.44488-.3806,0-.5713.14594-.74135.22238s-.33718.0672-.59313-.44475c-.20481-.40981-.13351-1.27549-.22233-1.6312-.0807-.32225-.27785-.45743-.37078-.59306s-.0319-.33876.29649-.66737c.42992-.42995.66729-.24496.66729-1.03812 0-.59747.51731-1.03714.96381-1.26033 .57924-.28973.26705-.74137 1.11188-.74137 .58837,0 1.19998-.19229 1.55689-.37071 .33687-.16867.5358-.39857.51881-.59318s-.1999-.29657-.59311-.29657c-.74156,0-1.17015.44482-1.92734.44482-.46792,0-1.21853.51073-1.63094.59314-.59415.11885-1.16101.0678-1.77912.2225-.63649.15905-1.12919.65301-1.77933.81544-.57316.14339-1.28955,1.081-1.4085,1.55706-.18523.74179-.79007,1.38334-1.33427,1.92775s-.80771.56009-1.33448.29657c-.07-.0349.79718-1.52026.96382-1.85358 .38328-.76684.5083-1.24967 1.18612-1.9278 .51453-.51449 1.05261-.8302 1.48264-1.26037 .50499-.505.74543-1.02048 1.40851-1.18627 .67562-.16897 1.43458-.0741 2.14991-.0741 .67876-.00016 1.12259-.29674 1.70494-.29674 .54204,0 1.15177-.75243 1.63089-1.11194 .54917-.41214 1.44245-.39246 2.07577-.51918 .72043-.14404 1.01934-.33354 1.26027-.81551 .26532-.53075.96617-.44719 1.33446-.81567 .26321-.26331.29501-.54286.37066-.74139s.1383-.34957.51891-.44482c.58347-.14588 1.22561-.10253 1.70498-.22232 .51257-.12813 1.17361,0 1.7052,0 .41722,0 .69334-.063.81546-.22244s.1482-.43302.1482-.74144c0-.57925-.33441-1.07578-.74127-1.48293-.46733-.46733-.71853-.91812-1.03798-1.55701-.27545-.55112-.527-1.20263-.74124-1.6312-.25297-.50585-.44486-1.11224-.66719-1.55693-.29912-.59845-.9149-.91457-1.4085-1.03812-.50627-.12644-1.12076-.67587-1.40857-.96383-.35024-.35031-.69453-.70619-1.03795-.9638-.49238-.36937-.72569-.41352-.96366-.88975-.22482-.44986-.53697-.85168-.81534-1.4087-.21631-.43244-.52996-.68901-.74149-1.11214-.2248-.4499-.0648-1.16779-.22238-1.48286-.21282-.42584-.37182-1.1144-.59301-1.55695-.2495-.49905-.40771-.59279-.66714-1.11237-.33114-.66211.0748-1.03707-.37082-1.48275-.42236-.4226-.44686-.77958-.96377-1.03813-.31705-.15838-.44248-.30391-.593-.37057s-.31064-.0301-.66707.14831c-.0644.032-.52956,1.13314-.59317,1.26039-.26899.5382-.64615.64619-1.1861,1.18625-.49805.49812-.78573.83016-1.03792,1.33462-.22298.44615-1.11745.14687-1.4085.0742-.26873-.0672-.31889-.33979-.29657-.66732s.0672-.69496 0-.96399c-.12803-.51264 0-1.24765 0-1.77933 .00012-.25478.27814-.26138.59311-.29661 .31509-.0353.70956-.11631.88969-.29657 .22268-.22296.35499-.3476.37055-.51906s-.0855-.38221-.37055-.6672c-.33278-.33272-1.16696-.19906-1.55682-.29667-.82622-.20658-1.15241-.12291-1.77935-.59308-.55483-.41622-.87786-.76904-1.0378-1.40868-.10469-.41906-.9885-.33979-1.40848-.44488-.59219-.1482-1.20532-.1482-1.85324-.1482-.55572-.00013-.97863.44847-1.55683.59308-.32469.0813-.59822-.0542-.81545-.0742s-.39599.0264-.51899.51894c-.16311.6525-.42588,1.07441-.66719,1.55695-.19833.39673-.22238,1.05027-.22238,1.63124 0,.72246-.1957.84792 0,1.63113 .1331.53271-.0496,1.23579-.14838,1.63114-.15082.60388.15039,1.17822 0,1.7795-.19234.76997-.4064,1.04014-.074,1.70531 .30834.61685.63269.75197.81539,1.48276 .14683.58763-.2224,1.19042-.2224,1.7795 0,.50923-.74577,1.11797-.96375,1.40869-.2729.36421-.59302.98303-.59302,1.48275-4e-005,.40651-.96504.7051-1.18621.81568-.58885.2945-.90293.78375-1.26021,1.26041-.27772.37033-.29643,1.25117-.29643,1.70536 0,.58023-.14838,1.16294-.14838,1.77939v1.77956c0,.60186.14606.89865 0,1.4827-.14044.56165-.8177.92793-1.18606,1.11217-.34713.17367-.67807-.0188-.88954-.29655s-.3707-.67461-.3707-.88964c6e-005-.6272 0-1.30066 0-1.92786 6e-005-.5009-.14827-1.09292-.14827-1.63102v-1.85374c0-.72553-.22774-1.05878-.37076-1.63102-.0902-.36097-.91065-.91087-1.18612-1.18631-.404-.40402-.95227-.7357-1.40856-.96394-.37518-.18754-.91703-.69473-1.18614-.96381-.56544-.56575-.9129-.78813-1.18595-1.33462-.28246-.56501-1.0203-.66725-1.6311-.66725-.64716,4e-005-1.28034-.14486-1.77904-.51889-.35887-.2692-.44496-1.17393-.44496-1.55718 0-.74388-.0893-1.337-.22231-2.00176-.10916-.54581-.0451-1.30234.0742-1.77939 .16701-.66864.89248-1.19221 1.11186-1.63119 .30685-.61379 1.28121-1.05876 1.77923-1.55701 .47886-.47901.73615-1.18231 1.33447-1.63123 .75762-.56849 1.54472-.99466 2.37208-1.40876 .43734-.21862.49499-.84143.66735-1.18614 .30844-.61719.49935-1.1667.88954-1.55706l1.33446-1.33468c.37858-.37862 1.43955-.29651 1.63093-.29651 .26125,0 .7386,1.40319.81537,1.55706 .16223.32451.28548.50426.51893.59308s.59286.063.88968,0c.59333-.12563 1.27665-.4388 2.07564-.6672 .44502-.12725.97741-.97064 1.4085-1.18643 .41968-.20972.44473-1.18996.44473-1.70526 0-.67646-.0739-1.03244-.0739-1.63107 0-.33626-.98181-.71331-1.18615-.81563-.28625-.14316-.31303-.47236-.22235-.8155s.31491-.68582.44473-.81555c.36732-.36759 1.00276-.62149 1.48269-.74152 .6376-.15941 1.22185-.1291 1.70497-.37073 .52142-.2607.66002-.58584 1.03797-.96383 .58733-.58745.64625-.9545.81534-1.63114 .12432-.4973.0583-1.27079.14826-1.63105 .14971-.59933.7208-1.15884.96382-1.48301 .17846-.23801.25201-.44684.44481-.59313s.43998-.22243.88957-.22243c.42786,0 .70558.0189.88964.14836s.29183.36138.44475.6672c.21956.4395.0741,1.25576.0741,1.77956 0,.62971-.48927.8599-.81552,1.18619-.29504.29519 1.0341.92389 1.18617,1.03807 .23616.17695.10501.55777-.14825.96382s-.62123.79774-.66719.88975c-.19337.38655-.68385.77442-.96372,1.33462-.37236.74496-.44605.8529-1.4827,1.11213-.67215.16793-1.22126.68479-1.63083.88958-.29273.14646-.30456.35339-.22247.59318s.20877.50552.29649.59314c.5139.51402.73576.49914 1.40857.66731 .79912.19993 1.08329-.0383 1.55676.59318 .32168.42902.45461.61269.66717,1.038 .30187.60413.65054.97116.81552,1.63107 .0732.29281 1.17409.40182 1.55677.59319 .49794.24905 1.27417.30352 1.70503.51906 .5458.2729.79655.44001 1.4085.59312 .49425.12355.65619.36787 1.26034.51901 .36062.0903.58395.11764.74128,0s.21673-.34807.29658-.66725c.0661-.26504-.2243-.59359-.51902-.81552s-.5862-.33035-.66714-.37086c-.62104-.31057-.86287-.41809-1.26026-.81551-.32225-.32261-.46675-.6051-.44489-.81567s.21036-.35849.44489-.59302 .47309-.156.74135,0 .56906.42081.66721.51895c.25693.25705.55889.18575.81548,0s.41199-.53614.44484-.66732c.11768-.47142.22229-.78148.22229-1.48287 0-.73346-.48978-.85781-.29643-1.63119 .0813-.32607-.19533-.56957-.5191-.74139s-.70395-.30564-.88941-.44493c-.59673-.44741-.88471-.43463-1.18623-1.03795-.21724-.4345-.0697-.66458.14822-.7412s.49943-.0422.66735,0c.67403.16838.79651.49991 1.26007.96376 .52773.52768.52425.81811 1.112,1.11213 .56684.28343.565.74144 1.18604.74144 .3949,0 .44506-1.19581.44506-1.55711 0-.63376-.29668-1.10289-.29668-1.77944 0-.26845.62608-.7329.74143-.96383 .17522-.35078.15798-.65753 0-.88975s-.43251-.43237-.59311-.59306c-.4226-.42278-.78521-.60669-1.03786-1.11224-.28953-.57943-.9041-.83005-1.40848-1.33446-.0762-.1526-.32886.007-.59311.0741s-.525.0499-.66731-.51893c-.1362-.54602.17353-1.2867.29664-1.77956 .14012-.56056.4582-.72049.59311-1.26043 .10565-.42336.33804-.54574.44473-.66715s.12959-.25975-.0741-.66741c-.1426-.28505-.90155-.59893-1.18612-.74134-.47173-.23609-.76804-.6198-1.03792-.88986-.25991-.25993-.14819-1.38248-.14819-1.77938 0-.29681-.14288-.53487-.37082-.66731s-.50042-.17609-.74127-.29645c-.42636-.21348-.91553-.22245-1.55683-.22245-.51228,0-1.30285-.10345-1.77909-.22237-.54756-.13709-1.26384.13053-1.63086.22237-.51262.12819-1.24798,0-1.77928,0-.60767,0-.82498-.22481-1.40851-.3708-.37602-.094-1.24306.65853-1.55688.8155-.31802.15926-.45445.0414-.5187-.22225s-.0743-.6337-.0743-.88982v-1.7795c0-.25026-.1827-.38393-.44473-.44481s-.58798-.0742-.81552-.0742zm64.27332,7.19194c-.31575.0653-.58195.32655-.6673.66719-.0989.39582-.14715.95978-.22235,1.26052-.0235.0943-1.46615-.18459-2.2981.14837-.352.14078-.85655.36242-1.18615.44481-.4526.11307-.31705.43736-.2223.81562 .1181.47276 1.44775.56582 1.85325.66731 .28385.0709.66565.59139.9637.88975s.8007.5079 1.11195.74133c.2423.18169.49795.72031.81545,1.03805 .3297.32985.89775.48382 1.3344.59307 .5287.13228.85955-.14819 1.40855-.14819 .4479,0 .83895.22237 1.3345.22237 .5133,0 .8708-.22237 1.3343-.22237 .37745,0 .53115-.60922.74135-.88964 .2755-.36768.2965-.93638.29645-1.40887 0-.43706-.14305-.86913-.22235-1.1863-.0942-.37712-.83925-.56617-1.0379-.96388-.2494-.49897-.2642-.6246-.8154-1.03794-.3758-.28187-1.0569-.60274-1.33445-.74138-.4406-.22042-.7621-.40501-1.112-.66738-.23145-.17376-.5832-.22244-.96375-.22244h-.81545c-.1099-.0274-.19135-.0217-.2964,0zm26.09457,9.56453c-.4779.0627-.593.78258-.5929,1.4087s-.8459,1.2091-1.112,1.40862c-.3662.27464 1.4846,1.00154 1.631,1.03817 .6256.15643 1.1455.68867 1.779.81552 .4571.0914 1.214.58937 1.7793.81551 .3243.12985.4252.60534.5189,1.11224s.1482,1.02243.1482,1.33462c0,.64486 0,1.31999.1482,1.92775 .1586.63375.337.87599.1484,1.63096-.09.36085-.1338.6363-.1484.88982s.025.47015.2966.74137c.487.48735 1.8586.22759 2.4465.81562 .582.58231 1.0364.97672 1.7049,1.77944 .3431.41167-.032,1.1545.4449,1.63114 .327.32717 1.4114.38863 1.7791.29662 .2592-.0649.3831-1.53207.4449-1.77957 .078-.31026.5336-.47259 1.0379-.51892s1.0837.023 1.3342.1483c.4457.2229.4931.91909.3708,1.4087-.092.36889-.014.61156.1483.81567s.4026.38673.6671.51905c.488.24385 1.1404.15961 1.4828.074 .5439-.13604.7878-.90855 1.0378-1.40874 .1696-.33904.2418-.59452.2965-.81552 .055-.22093.093-.41693.4448-.59318 .4986-.24941.7307-.63559.593-1.18644-.1497-.59989-.3179-1.15488-.593-1.70514-.3658-.73153-1.1381-1.00195-1.7791-1.48281-.4899-.36774-.4399-.49904-.5932-1.11219-.1028-.41234-.8092-.73826-1.2602-.96393-.4151-.20757-.6872-.93669-1.186-1.18631-.7249-.36242-1.4198-.47166-2.0759-.9637-.6668-.50033-1.2526-.68006-1.9273-1.18644-.6522-.4892-1.2245-1.07602-1.7793-1.63107-.5471-.54737-1.0828-.78646-1.4826-1.18626-.4909-.49105-1.2597-.7783-1.7791-1.03805-.6715-.33568-1.0486-.7308-1.631-.96388-.7036-.28146-1.2045-.35686-1.8535-.51907-.2216-.0553-.471-.25297-.667-.37062-.084-.021-.1542-.009-.2226,0zm-64.79199,35.21796c-.19824.19841-.5646.0229-.8154.14824-.26894.13467-.38431.6473-.44473.88987-.0996.39801-.065.76899-.14838,1.18631-.095.47417.0473,1.22711.14838,1.63103 .0798.31981-.43346.71829-.59325,1.038-.16455.32931-.37548.59955-.59293.88975-.25541.34071-.21655,1.08222-.29668,1.48281-.0953.47734-.11877.84612-.22235,1.26056-.0786.31409-.0741.62455-.0741.96388 0,.25657.60925.41577.81549.519 .22108.11053.3381-.15242.44475-.44487s.19586-.6407.37065-.81564c.35777-.35779.54315-.51898 1.03786-.51898 .32369,0 .67042-.0741 1.03778-.0741 .20563,0 .62757.1284.81551.22237 .35678.17846.57467.35218.8154.59313 .28684.2869.2025.62525.6674.74156 .37818.0945.61741.29656 1.03775.29656h1.26035 .96364c.45175,0 .44487-.28747.44487-.74162 0-.39881.0578-.67604.14826-1.03787 .0921-.36961-.0799-.61566-.14826-.88987-.0806-.32197-.60908-.68306-.81559-.88957-.46073-.46086-.96646-.38153-1.11202-.96407-.0679-.27079.0743-.67349.0743-.9637 0-.28244.074-.57235.074-.88969 0-.37953-.23835-.55088-.37059-.81556-.16348-.327-.46834-.29652-.81557-.29657-.3263,0-.78909-.0837-1.11188-.14836-.36504-.073-.5675-.0486-.81532-.29662-.27167-.27146-.5191-.22944-.5191-.6672 0-.22904-.15705-.47971-.22233-.74138-.0778-.31103-.14087-.42087-.37078-.59318-.13787-.10353-.51217-.0742-.66713-.0742zm110.23549,2.8175c-.3787.0546-.3914,1.42941-.8154,1.85363-.3919.39186-.7918.49516-1.112.81532-.5503.55061-1.2132,1.06526-1.7792,1.63137-.485.48515-.5646,1.44833-.8154,2.07605-.1796.44906 0,1.43238 0,1.92777 0,.62975-.7229,1.62191-.9638,2.22408-.1511.37803-.2783.55071-.519.66738s-.5551.12023-.9636.22243c-.664.16596-1.2007.30379-1.7792.59324-.4224.21116-.7474,1.12416-.9637,1.55701-.224.44805-.1004,1.29111-.2223,1.77933-.1979.79161-.1521,1.68644 0,2.44663 .1242.62177.2217,1.18371.3706,1.77961 .1609.64411-.1192,1.21779-.2224,1.63095-.1558.62335-.3701,1.18401-.519,1.77956-.1511.60517.5931,1.20976.5931,1.85363 0,.67854.174,1.30581 0,2.00188-.1133.45269.1016,1.11468.3706,1.77938s.6344,1.35164.7413,1.77938c.074.29465-1.536,2.24673-1.705,2.6692-.2147.53671-.527,1.24909-.8895,1.85362-.3664.61101.074,1.30037.074,1.92776 0,.65377.1482,1.37704.1482,2.076 0,.85879.1484,1.74014.1484,2.59506 0,.76888-.7805,1.86086-.9638,2.59489-.1743.69706.013,1.58184.2965,2.15037 .2119.42387-.1727,1.50591-.2965,2.00165-.2089.83494.2224,1.77023.2224,2.59499v.37082c0,1.14458.9349,2.67358 1.1861,3.92947 .1374.68723-.2481,1.06683-.3706,1.55711-.1879.75165.219,1.32128.3706,1.92771 .2457.98273.048,1.83108-.3706,2.66915-.2113.42286-.2158.74404-.1484,1.11211s.2236.74408.3707,1.11227c.2845.71111.03,1.67619.2224,2.44667 .1639.65582-.074,1.8488-.074,2.59503 0,.53793-.217.792-.3707,1.11206s-.2369.6832-.074,1.33469c.039.15678.034.36204.074.5188 .137.54765 1.2779,1.70001 1.7791,2.07618 .3498.26234.4523.54405.5189.81568s.074.54258.074.96375c0,.88966.097,1.43111.667,2.00183 .3489.34903 1.0225.30054 1.4087.81563 .317.42269.2963,1.60926.2963,2.15013 0,.6601.017,1.03922.2227,1.40869 .205.3695.583.73146 1.0378,1.18634 .1957.19587.397.323.593.51885 .4654.4658.5491,1.29071 1.0378,1.77948 .4534.45376 1.1593,1.02452 1.7794,1.33469 .3739.18703.7636.0575 1.1117-.14836s.6403-.48016.8898-.66733c.7306-.54794 1.2729-1.06337 1.6309-1.7794 .485-.97029 1.3402-2.03078 1.5566-3.11405 .083-.41651.1998-.68585.445-.8897s.6283-.35126.9636-.51891c.5987-.29944 1.1642-.95186 1.4827-1.48297 .3507-.58481.9817-.97791 1.631-.81549 .501.12536.8505.49531 1.1118.88965s.4943.79023.5932,1.18635c.1586.63446-.4832,1.41118-.7413,1.92765-.4328.86571-.2302,1.51763-.8156,2.29839-.5227.69724-.7843,1.71734-1.1119,2.37261-.4423.88504-.3287,2.23667-.519,3.18829-.085.42304-.3868,1.26404-.5931,1.77942-.2401.60066-.5189,1.74275-.5189,2.37245 0,.83406-.871,1.51973-1.2601,2.29849-.4614.92283-.8064,1.86799-1.1862,2.81751-.2875.7187-.6381,1.48376-1.0378,2.15003-.3551.59203-.6549,1.21073-.8155,1.8536-.148.59238-.5395,1.07925-.8154,1.63112-.2613.52272-.3083,1.06136-.5931,1.63133-.5291,1.05809-1.7097,2.89585-2.5946,3.78116-.7629.76325-1.7525,1.79994-2.15,2.59497-.2608.52179-.4232.92095-.6672,1.40887-.3557.71182-.8307,1.51339-1.2601,2.37255-.3005.60074-.8197.89788-1.1122,1.48295-.3032.6066-.4411.8569-.5188,1.18616 16.9506-19.86419 27.2809-45.62828 27.2809-73.77244 0-14.36293-2.7717-28.04863-7.6356-40.70464-.4958.039-1.3728.22243-1.9277.22243-.3572.00018-.6222.27575-.8153.59308s-.3073.71082-.3708.96399c-.1757.70295-.1379,1.5011.074,2.22426s.5671,1.38264.9637,1.77938c.3005.30055.4822.59237.4448.81551s-.2619.37081-.7414.37081c-.5191,6e-005-.8224-.0829-1.0378-.22238s-.3282-.32822-.5931-.59318c-.5023-.50264-.9595-.92459-1.6309-1.26039l-1.6309-.81562c-.3812-.19067-.7053-1.26242-.8897-1.63109-.2898-.57969-.5187-1.16384-.5187-1.85378-.0001-.46866-.478-1.17804-.6673-1.55689-.2293-.4586-.5474-.94618-.8155-1.48277-.2997-.59966-.5741-1.0053-1.1121-1.40868-.069-.0516-.094-.0821-.1482-.0743zm-140.55576,61.76139c-.0824.0361-.18409.10974-.29664.22238-.32815.3281-.25141.26408-.81543-.0741 .12209,0 1.54799,1.71497 1.85325,2.22433 .14377.23954.55438.31381.96372.29643s.80366-.10145 1.03795-.14836c.52483-.10486.66234-.41799.59302-.74128s-.34535-.69165-.59302-.81566c-.64265-.3217-1.08254-.56739-1.77926-.74138-.57624-.14424-.71678-.33081-.96359-.22236zm1.33431,4.96739c-.43854.0792-1.0984.35718-1.33431.59318-.18615.18619-.0325.53459.14809.88979s.43778.65305.51901.81569c.22732.45441 1.57414.59307 2.07575.59307 .42145,0 .61244-.19044.66708-.44479s-.01-.55768-.0741-.81563c-.11597-.46444-.68946-.91211-.96378-1.18628-.27914-.27931-.0319-.0638-.66719-.44503-.0877-.0219-.22448-.0264-.37061,0zm-6.00482,4.0039c-.84775-.002-1.64328.0246-2.44639.66742-.97474.77984-2.15545,2.19658-2.81699,2.44661 .14632.36593.26346.68284.51893.81544s.64258.12363 1.0379-.0742c.64775-.32394 1.07887-.46519 1.63093-.74122 .57243-.28642 1.01321-.51906 1.63095-.51906 .79266,0 1.32177.27476 2.00147.44479 .51398.12853.90564.30446 1.48276.59313 .59997.30006 1.15024.5571 1.63095,1.0381 .46704.46716 1.3292.7004 1.77904,1.0378 .46237.34698 1.31527.72234 1.77927,1.18639 .30075.30089.93678.95033 1.4085,1.1864 .49805.24897.92301.19804 1.33443.0743s.8368-.29664 1.40858-.29676c.41693,0 1.12389.0414 1.77921.0741s1.22889.0316 1.48251-.22243c.15764-.15758.3744-.37162.44481-.59308s-.005-.40915-.44481-.5188c-.62669-.15687-1.17897-.35049-1.85323-.51924-.93335-.23329-.6378-.65234-1.40849-1.03791-.87305-.43668-1.13169-.56093-2.14993-.81569-.66697-.16676-1.67827-.26951-2.22402-.81543-.491-.49123-.75423-1.37819-1.26013-1.63126-.88479-.44236-1.5613-1.05367-2.59468-1.26039s-2.29242-.51907-3.33616-.5189h-.81541zm19.79368,6.747c-.1684-.0154-.35117.0321-.5191.0741-.6891.1724-2.48864.0106-2.59473.22239-.11739.19594-.26836.3887-.37053.59313-.23831.47681-.19835.63145-.0742.74154s.35793.13549.59311.37072c.0881.0882.29724.3769.37071.66727s.003.59179-.29663.74134c-.0668.0334-1.50969.7616-1.48258.81568 .19541.39095.39606.51883 1.26012.51883 .71917,0 1.21387.0947 1.85338.22254 .43037.086 1.37163.32446 1.77915.22248 .964-.24107 1.68439-.49839 2.29829-1.11217 .51762-.51808.52567-.27973 1.48259-.51902 .33095-.0828.72761-.0681.96372-.14834s.37055-.2479.37055-.66733c0-.44514-.51301-1.03794-1.11198-1.03794-.52446,0-1.22247.0192-1.70488-.22234-.67086-.3357-.67572-.91054-1.48278-1.11227-.37893-.0948-.82938-.32467-1.33421-.37063zm8.45088,2.59482c-.23351-.0583-.35766.28008-.3704.66759s.1093.80824.14805.96376c.0861.34413 1.2925.51883 1.70519.51883s.74262.0121.88954-.074 .10332-.23818-.0742-.59315c-.25026-.50068-.39684-1.08817-.88958-1.33469-.40675-.20336-.96498-.14817-1.4086-.14834zm6.67209.51906c-.12161.09-.19003.41657-.14828.74155 .0419.32505.21101.60867.74127.74139 .52262.13083 1.29343.0843 1.63107,0 .27403-.0685.16774-.29213-.0743-.5933s-.56263-.61495-.81539-.74111c-.30358-.15204-.88293-.14853-1.26025-.14853-.0307-.0156-.0394-.0256-.0741,0zm-24.24152.74155c-.0987.006-.27261.074-.37055.074-.0988-.0809-1.14449-.0208-1.63101.2226-.33985.16986-.56179.33487-.66719.51889s-.11074.44556.0741.81563c.19311.38605.21762.64098.29672.81555s.22922.26117.66719.37078c.71129.17773 1.35137.39923 2.00144.0741 .5025-.25143.74137-.97741.74149-1.55704 0-.71547-.20014-1.10664-.81551-1.26053-.0952-.0238-.19783-.08-.29664-.074zm27.35504,2.66911c-.37904.0806-.31328.6505.0742,1.03803 .46242.46252.94677.30517 1.2603.14836 .34135-.17087.21145-.45405-.0742-.66742s-.71947-.36633-.74128-.37057c-.22353-.11186-.39256-.17526-.51902-.1484zm2.29804,3.2623c-.19898.15418-.81534.65979-.81534.96397 0,.28955.30145.28724.66724.22242 .36563-.0651.75597-.19274.81551-.22242 .34327-.17186-.27645-.71323-.59305-.96397-.0113.005-.0555-.009-.0744,0zm.445,2.66921c.0127.0205.0598.12567.074.14824 .0553-.0462.0827-.14438.0742-.14824s-.0832-.0326-.14823,0zm.074.14824c-.26192.21955-1.08399.77778-1.1861,1.18628-.0869.34773 1.4476-.0565 1.48258-.0741 .34439-.17211-.0692-.7521-.29648-1.11216zm3.11361.8155c-.0339.35155-.40327,1.31023-.0741,1.55717 .48544.36407.70679.26046.81545.074s.0971-.47293 0-.66715c-.18557-.37147-.40061-.61612-.74131-.96404z" fill="url(#ae)"/>
  <path d="m268.3 765.86c-20.442 0-39.611 5.3775-56.263 14.728-0.0104 6e-3 -0.0317-6e-3 -0.0421 0-10.775 6.0547-20.419 13.842-28.699 22.905-18.73 20.503-30.278 47.7-30.278 77.642 0 4.0616 0.20788 8.0724 0.6184 12.026 79.021 15.629 147.27-28.174 226.74-38.611-1.2055-5.0243-2.735-9.9234-4.5629-14.68-2.4184-6.2927-5.4094-12.318-8.8438-18.024-14.884-24.73-38.712-43.385-67.064-51.483-10.065-2.875-20.627-4.5029-31.611-4.5029z" fill="url(#n)"/>
  <path d="m260.23 765.64c-0.38529 10.788-5.3773 22.914-11.356 31.879l-4.725 7.0842-37.912 7.0842 37.228-2.9344-5.0948 4.4322-21.958 8.1646-34.482-3.7324 14.318 4.6601-19.453 20.489 23.752-18.959 16.739 1.1802-12.858 17.388 18.763-19.242 18.763-4.2143-1.2951 12.861 6.2189-11.559 9.0778-11.341c2.5765-3.219 3.1694 15.066 0 21.405-3.0294 6.0586-19.05 15.311-18.596 16.825 0.43142 1.438 18.421-11.206 21.253-7.9697 3.3673 3.8483 3.4655 20.889-2.6566 25.68l-5.0918 3.9848-36.196-2.8779-25.04-12.792 21.007 13.331c-8.9371 1.1968-18.298 0.12727-28.582 4.9188-7.7086 3.5914-13.66 6.3624-21.375 10.208 7.3384-1.6154 21.013-7.9981 29.542-10.159 8.075-2.0462 16.76-1.6419 25.141-2.4629l27.181 2.0893-28.164 11.387-16.628-6.261 13.037 7.4647-33.453 17.205 15.103-4.4432-5.7313 24.566 9.7654-26.352 12.447-6.657 9.3473 11.939-4.3723-12.951 33.373-13.394-21.529 22.913 26.898-22.36 8.6339-4.8704c4.3535-2.4558 3.3964-0.0162 3.9663 12.25l0.40943 8.8115-11.379 9.415 12.469-5.9372-1.3065 12.848-20.676 7.6509-18.784-3.4004 17.523 5.8976-3.7299 12.982 7.7014-13.247 17.885-6.606 0.17442 3.5775 0.16142 22.679 2.4391-19.568 26.72 14.1-26.068-17.797 0.28821-15.261 12.665 8.4695-12.305-13.169 1.5873-25.465c0.0841-1.3484 1.4839 1.9124 3.9414 5.896l5.5563 9.0066 6.9236 17.306-1.63-10.829 25.379 24.592-23.436-26.99 23.054 10.202-27.833-15.902c-17.257-23.2-0.0436-9.0825 27.009 2.6566l7.5463 3.2747 33.242 28.088-24.379-24.129 34.066 11.292-63.785-28.557 20.783-2.8768 26.982 9.742-23.48-11.511 38.95-3.9842-36.333 0.8867-26.15 4.8716-6.924-1.2647c-6.2138-1.135-12.788-6.3144-15.054-11.512-2.7524-6.3144-3.7499-21.417 0-23.024 4.515-1.935 24.523 14.026 24.795 12.397 0.3189-1.9132-17.775-14.344-23.024-23.024-2.4264-4.0129-2.3848-16.407 0-15.054l6.2446 3.5421 8.7492 17.318-3.1479-15.869 21.285 12 15.497 16.208-6.34-14.438 26.22 6.8518 30.212 7.7552-24.264-10.404 17.532-10.162-21.916 9.2487-32.561-9.0536 11.896-7.1752-16.911 5.7383-6.892-3.6542c-3.0916-1.6391-13.238-8.7605-21.177-25.617-3.9173-8.3181-7.5585-18.289-7.3142-27.451z" fill="#008000" fill-rule="evenodd" opacity=".3"/>
  <path transform="matrix(.08329 0 0 .07458 109.58 709.97)" d="m2553.3 76.667c0 73.638-59.695 133.33-133.33 133.33s-133.33-59.695-133.33-133.33 59.695-133.33 133.33-133.33 133.33 59.695 133.33 133.33z" fill="#008000" fill-rule="evenodd" filter="url(#j)"/>
  <path transform="matrix(.08329 0 0 .07458 109.58 708.48)" d="m2553.3 76.667c0 73.638-59.695 133.33-133.33 133.33s-133.33-59.695-133.33-133.33 59.695-133.33 133.33-133.33 133.33 59.695 133.33 133.33z" fill="#8be063" fill-rule="evenodd"/>
  <path transform="matrix(.06705 0 0 .06003 148.89 709.6)" d="m2553.3 76.667c0 73.638-59.695 133.33-133.33 133.33s-133.33-59.695-133.33-133.33 59.695-133.33 133.33-133.33 133.33 59.695 133.33 133.33z" fill="#fff" fill-rule="evenodd" filter="url(#c)" opacity=".6066"/>
  <path transform="matrix(.06705 0 0 .04046 148.89 707.74)" d="m2553.3 76.667c0 73.638-59.695 133.33-133.33 133.33s-133.33-59.695-133.33-133.33 59.695-133.33 133.33-133.33 133.33 59.695 133.33 133.33z" fill="#00804d" fill-rule="evenodd" filter="url(#c)"/>
  <path transform="matrix(.04871 0 0 .02939 192.72 712.42)" d="m2553.3 76.667c0 73.638-59.695 133.33-133.33 133.33s-133.33-59.695-133.33-133.33 59.695-133.33 133.33-133.33 133.33 59.695 133.33 133.33z" fill="#fff" fill-rule="evenodd" filter="url(#d)"/>
  <path transform="matrix(.03237 0 0 .01953 232.27 707.34)" d="m2553.3 76.667c0 73.638-59.695 133.33-133.33 133.33s-133.33-59.695-133.33-133.33 59.695-133.33 133.33-133.33 133.33 59.695 133.33 133.33z" fill="#fff" fill-rule="evenodd" filter="url(#b)"/>
  <path transform="matrix(.01192 .0098 -.00591 .00719 289.48 686.63)" d="m2553.3 76.667c0 73.638-59.695 133.33-133.33 133.33s-133.33-59.695-133.33-133.33 59.695-133.33 133.33-133.33 133.33 59.695 133.33 133.33z" fill="#fff" fill-rule="evenodd" filter="url(#b)"/>
  <path transform="matrix(.03152 0 0 .02822 256.95 695.07)" d="m2553.3 76.667c0 73.638-59.695 133.33-133.33 133.33s-133.33-59.695-133.33-133.33 59.695-133.33 133.33-133.33 133.33 59.695 133.33 133.33z" fill="#008000" fill-rule="evenodd" filter="url(#j)"/>
  <path transform="matrix(.03152 0 0 .02822 256.95 694.5)" d="m2553.3 76.667c0 73.638-59.695 133.33-133.33 133.33s-133.33-59.695-133.33-133.33 59.695-133.33 133.33-133.33 133.33 59.695 133.33 133.33z" fill="#8be063" fill-rule="evenodd"/>
  <path transform="matrix(.02537 0 0 .02272 271.82 694.92)" d="m2553.3 76.667c0 73.638-59.695 133.33-133.33 133.33s-133.33-59.695-133.33-133.33 59.695-133.33 133.33-133.33 133.33 59.695 133.33 133.33z" fill="#fff" fill-rule="evenodd" filter="url(#c)"/>
  <path transform="matrix(.02537 0 0 .01531 271.82 694.22)" d="m2553.3 76.667c0 73.638-59.695 133.33-133.33 133.33s-133.33-59.695-133.33-133.33 59.695-133.33 133.33-133.33 133.33 59.695 133.33 133.33z" fill="#00804d" fill-rule="evenodd" filter="url(#c)"/>
  <path transform="matrix(.01843 0 0 .01112 288.41 695.99)" d="m2553.3 76.667c0 73.638-59.695 133.33-133.33 133.33s-133.33-59.695-133.33-133.33 59.695-133.33 133.33-133.33 133.33 59.695 133.33 133.33z" fill="#fff" fill-rule="evenodd" filter="url(#as)"/>
  <path transform="matrix(.01225 0 0 .00739 303.37 694.07)" d="m2553.3 76.667c0 73.638-59.695 133.33-133.33 133.33s-133.33-59.695-133.33-133.33 59.695-133.33 133.33-133.33 133.33 59.695 133.33 133.33z" fill="#fff" fill-rule="evenodd" filter="url(#b)"/>
  <path transform="matrix(.00451 .00371 -.00224 .00272 325.02 686.23)" d="m2553.3 76.667c0 73.638-59.695 133.33-133.33 133.33s-133.33-59.695-133.33-133.33 59.695-133.33 133.33-133.33 133.33 59.695 133.33 133.33z" fill="#fff" fill-rule="evenodd" filter="url(#b)"/>
  <path transform="matrix(.04894 0 0 .04382 80.729 646.7)" d="m2553.3 76.667c0 73.638-59.695 133.33-133.33 133.33s-133.33-59.695-133.33-133.33 59.695-133.33 133.33-133.33 133.33 59.695 133.33 133.33z" fill="#005a30" fill-rule="evenodd"/>
  <path transform="matrix(.04894 0 0 .04382 80.729 645.82)" d="m2553.3 76.667c0 73.638-59.695 133.33-133.33 133.33s-133.33-59.695-133.33-133.33 59.695-133.33 133.33-133.33 133.33 59.695 133.33 133.33z" fill="#8be063" fill-rule="evenodd"/>
  <path transform="matrix(.0394 0 0 .03527 103.82 646.48)" d="m2553.3 76.667c0 73.638-59.695 133.33-133.33 133.33s-133.33-59.695-133.33-133.33 59.695-133.33 133.33-133.33 133.33 59.695 133.33 133.33z" fill="#fff" fill-rule="evenodd" filter="url(#c)" opacity=".6066"/>
  <path transform="matrix(.0394 0 0 .02377 103.82 645.39)" d="m2553.3 76.667c0 73.638-59.695 133.33-133.33 133.33s-133.33-59.695-133.33-133.33 59.695-133.33 133.33-133.33 133.33 59.695 133.33 133.33z" fill="#00804d" fill-rule="evenodd" filter="url(#c)"/>
  <path transform="matrix(.02862 0 0 .01727 129.58 648.14)" d="m2553.3 76.667c0 73.638-59.695 133.33-133.33 133.33s-133.33-59.695-133.33-133.33 59.695-133.33 133.33-133.33 133.33 59.695 133.33 133.33z" fill="#fff" fill-rule="evenodd" filter="url(#d)"/>
  <path transform="matrix(.02195 0 0 .01324 146.87 645.02)" d="m2553.3 76.667c0 73.638-59.695 133.33-133.33 133.33s-133.33-59.695-133.33-133.33 59.695-133.33 133.33-133.33 133.33 59.695 133.33 133.33z" fill="#fff" fill-rule="evenodd" filter="url(#b)"/>
  <path transform="matrix(-.00867 .00712 .0043 .00523 215.69 629.21)" d="m2553.3 76.667c0 73.638-59.695 133.33-133.33 133.33s-133.33-59.695-133.33-133.33 59.695-133.33 133.33-133.33 133.33 59.695 133.33 133.33z" fill="#fff" fill-rule="evenodd" filter="url(#b)"/>
  <path transform="matrix(-.01814 0 0 .01624 232.64 628.25)" d="m2553.3 76.667c0 73.638-59.695 133.33-133.33 133.33s-133.33-59.695-133.33-133.33 59.695-133.33 133.33-133.33 133.33 59.695 133.33 133.33z" fill="#005a30" fill-rule="evenodd"/>
  <path transform="matrix(-.01814 0 0 .01624 232.64 627.92)" d="m2553.3 76.667c0 73.638-59.695 133.33-133.33 133.33s-133.33-59.695-133.33-133.33 59.695-133.33 133.33-133.33 133.33 59.695 133.33 133.33z" fill="#8be063" fill-rule="evenodd"/>
  <path transform="matrix(-.0146 0 0 .01308 224.08 628.17)" d="m2553.3 76.667c0 73.638-59.695 133.33-133.33 133.33s-133.33-59.695-133.33-133.33 59.695-133.33 133.33-133.33 133.33 59.695 133.33 133.33z" fill="#fff" fill-rule="evenodd" filter="url(#c)" opacity=".6066"/>
  <path transform="matrix(-.0146 0 0 .00881 224.08 627.76)" d="m2553.3 76.667c0 73.638-59.695 133.33-133.33 133.33s-133.33-59.695-133.33-133.33 59.695-133.33 133.33-133.33 133.33 59.695 133.33 133.33z" fill="#00804d" fill-rule="evenodd" filter="url(#c)"/>
  <path transform="matrix(-.01061 0 0 .0064 214.54 628.78)" d="m2553.3 76.667c0 73.638-59.695 133.33-133.33 133.33s-133.33-59.695-133.33-133.33 59.695-133.33 133.33-133.33 133.33 59.695 133.33 133.33z" fill="#fff" fill-rule="evenodd" filter="url(#d)"/>
  <path transform="matrix(-.00814 0 0 .00491 208.12 627.63)" d="m2553.3 76.667c0 73.638-59.695 133.33-133.33 133.33s-133.33-59.695-133.33-133.33 59.695-133.33 133.33-133.33 133.33 59.695 133.33 133.33z" fill="#fff" fill-rule="evenodd" filter="url(#b)"/>
  <path transform="matrix(.00321 .00264 -.00159 .00194 182.62 621.77)" d="m2553.3 76.667c0 73.638-59.695 133.33-133.33 133.33s-133.33-59.695-133.33-133.33 59.695-133.33 133.33-133.33 133.33 59.695 133.33 133.33z" fill="#fff" fill-rule="evenodd" filter="url(#b)"/>
  <path transform="matrix(.12508 0 0 .2262 -166.57 652.28)" d="m3479.8 1411.9c-84.663 0-164.05 3.8979-233.01 10.676-0.043 0.01-0.1301-0.01-0.173 0-44.626 4.389-84.55 10.034-118.84 16.603-77.572 14.862-125.4 34.576-125.4 56.281 0 46.13 213.95 83.56 477.43 83.56 8.2923 0 16.339-0.1386 24.528-0.2118 13.176-0.1179 26.164-0.3032 39.037-0.6048 119.37-2.796 224.81-13.261 299.34-28.549 71.167-14.597 114.35-33.512 114.35-54.194 0-10.555-11.534-20.61-31.955-29.91-10.016-4.5615-22.395-8.9284-36.619-13.065-61.642-17.926-160.33-31.449-277.75-37.319-41.685-2.084-85.44-3.2662-130.93-3.2662z" fill="#447821" filter="url(#i)" opacity=".625"/>
  <path d="m285.29 641.53c-5.1383 3.0953-10.801 9.2321-15.232 16.373 1.3797-1.2922 2.9781-2.3974 4.8331-3.2661-11.421 7.5096-10.502 22.031-10.885 33.946 15.612-2.9322 24.537-23.618 21.68-38.119-0.7366-3.7383-0.79085-6.6516-0.39625-8.9338z" fill="url(#ad)"/>
  <path d="m326.4 678.35c-2.0438 5e-3 -4.0915 0.14254-6.1299 0.40226 2.5292 1.0519 4.4176 3.0354 6.4962 4.9112-0.3758-1.7179-0.3906-3.5181-0.3663-5.3134zm4.0527 0.16811c0.6335 1.2796 0.5873 2.8687 1.4109 4.695 0.9591-1.5999 2.2414-2.8495 3.6204-3.9866l-0.5584-0.0901c-1.4824-0.28506-2.9725-0.48916-4.4729-0.6184zm-13.635 0.79251c-2.1655 0.42274-4.3109 0.97999-6.4241 1.6571 5.0788 0.19645 8.7501 3.0374 12.302 6.3161-2.2622-2.6298-4.1458-5.4672-5.8778-7.9732zm-8.3634 2.3175c-1.9659 0.70532-3.8969 1.5116-5.7818 2.4136 3.5597 0.1599 7.69 0.17389 16.174 3.3081-2.1121-3.8117-6.4368-4.9581-10.393-5.7217zm-6.7004 2.8639c-1.8594 0.92722-3.6716 1.9461-5.4216 3.044 5.9226-0.64266 12.717 0.34115 17.844 2.0173-3.7096-2.8859-8.3556-4.0221-12.422-5.0613zm-4.7731 5.2174c-1.4938 0.0197-2.9765 0.14927-4.4308 0.39025-1.7371 1.2729-3.3924 2.6251-4.9592 4.0466 7.4102-2.4513 15.223-2.2993 22.965-1.4229-4.2406-2.0746-8.9574-3.0748-13.575-3.014zm-3.086 5.9619c-2.912 0.0263-5.7978 0.24378-8.4955 0.57038-2.5382 2.5549-4.784 5.2935-6.6583 8.1593 7.0175-5.1943 17.097-7.64 25.132-7.9432-3.1882-0.59084-6.599-0.81702-9.9785-0.7865zm5.8298 5.2954c-8.2856 0.0302-17.323 4.0351-23.98 8.8017-2.9445 6.3175-4.0491 13.026-2.6057 19.561 0.48551-15.245 17.946-23.66 27.564-28.344-0.3254-0.0115-0.6506-0.0192-0.9786-0.018z" fill="url(#m)" opacity=".6101"/>
  <path transform="matrix(.19212 0 0 .19212 77.936 821.57)" d="m1213.2-610.63c-0.2088 0.68866-0.4212 1.3725-0.625 2.0625-5.1778 17.531-8.7127 35.415-9.5 52.406 5.5824-16.749 13.963-34.981 24.906-52.906-4.5066-1.0098-9.2065-1.5625-14.063-1.5625h-0.7187zm-22.688 4.4375c-9.7921 3.8893-18.163 10.128-24.188 17.938-4.5709 19.942-4.3986 40.517 1.0313 60.062 0.486 0.59003 0.987 1.1795 1.5 1.75 3.8357-27.053 9.9242-54.014 21.656-79.75zm58.781 6.4062c-4.3537 8.4228-7.8452 16.924-10.281 25.375-0.4905 1.7028-0.9407 3.395-1.3438 5.0938 5.7253-5.9029 12.912-13.573 21.063-22.219-2.7821-3.0562-5.9565-5.8319-9.4376-8.25z" fill="#ff0" filter="url(#aq)"/>
  <path transform="matrix(.19212 0 0 .19212 77.936 821.57)" d="m1398.9-670.48c-0.031 0.96683-0.099 1.9187-0.1563 2.875 0.1745-0.38359 0.3567-0.77409 0.5313-1.1562-0.1191-0.57391-0.2483-1.1453-0.375-1.7188zm-30.75 72.312c-31.607 35.921-80.583 59.569-112.72 75.219 1.6938 0.06 3.3865 0.0998 5.0937 0.0937 25.222-0.0918 51.8-7.2569 76.438-18.156 12.172-18.493 22.2-37.892 31.188-57.156zm-51.406 84.344c-26.077 8.916-53.716 13.528-77.812 14.438 16.594 3.0753 34.348 4.2526 51.937 4.0938 2.9518-0.0267 5.9086-0.0885 8.8438-0.1875 6.06-5.8857 11.717-12.024 17.031-18.344zm-112.59 33.875c18.489 9.0455 38.731 14.168 58.938 15.406 5.7833-4.2674 11.557-8.8629 17.375-13.75-25.164 2.6081-50.822 1.2295-76.312-1.6562zm-18.844 16.5c12.833 9.9837 27.834 15.943 42.656 20.406 5.8208-2.8141 11.473-5.924 17.031-9.3125-21.137-1.272-42.269-5.3994-59.687-11.094zm-24.313 11.469c6.3096 11.386 16.425 18.194 27.781 22.688 9.1502-2.1138 17.736-4.7717 25.938-7.9688-13.554-2.0682-30.49-6.1378-53.719-14.719zm-20.031 0.34375c7.5266 8.7494 14.244 17.944 20.469 26.844 4.625-0.47793 9.1143-1.0788 13.469-1.7812-12.373-6.1233-23.268-15.213-33.938-25.062zm-21.188 18.844c0.6734 3.0784 1.1099 6.2135 1.4063 9.375 3.0414 0.0741 6.0367 0.0911 8.9687 0.0937-3.4455-3.0978-6.8689-6.3047-10.375-9.4688zm-26.531 2.3438c-1.0843 1.8089-2.2376 3.538-3.4687 5.1875 1.8874 0.16997 3.7448 0.28968 5.5937 0.4375-0.5639-1.8214-1.2564-3.6992-2.125-5.625z" fill="url(#l)" filter="url(#ap)"/>
  <path d="m160.01 611.01c-2.0565 0.0155-4.1367 0.14061-6.244 0.37824-0.59102 0.1557-1.1507 0.32231-1.6751 0.50432 13.077-1.0059 19.794 7.709 24.208 18.51h6e-3c7.9076 4.9892 15.499 11.97 19.621 19.969 0.19839 0.38497 0.38246 0.77524 0.56439 1.1648-4.467-3.3638-10.359-7.8236-16.979-11.449 6.0628 24.646 36.173 40.216 60.279 38.107-1.1848-0.35102-2.4092-0.60324-3.6924-0.69046 1.6529-2.0652 3.5528-2.9655 4.677-4.4789 0.64827 1.5941 1.2196 3.2155 1.7231 4.8632 0.39303-0.0576 0.78184-0.12455 1.1708-0.19211-1.9444-5.1851-5.0088-10.645-8.9038-15.94 1.3803 2.0664 2.6406 4.2065 3.7704 6.4062-2.1257 1.0495-4.2336 2.1469-6.0279 3.6204 0.9521-3.5505 2.1432-6.9475 1.8792-10.531-0.90191-1.2074-1.85-2.4067-2.8338-3.5903-1.8832 3.4923-4.0424 7.3446-5.7457 11.509 1.6395-5.8497 2.7488-11.59 0.42027-17.381-0.69809-0.70608-1.4077-1.4032-2.1314-2.0894 1.3867 4.9401 2.3955 10.415-0.67843 14.98-1.3395-11.269-3.626-16.208-5.5236-20.347-0.42204-0.33261-0.84518-0.66045-1.2728-0.98464 1.1953 5.2892 2.5308 11.248 1.3989 17.165-1.08-6.8582-3.8859-15.183-8.0212-21.692-1.719-1.05-3.4705-2.0275-5.2414-2.9119 1.0135 1.4194 1.9323 2.9177 2.7558 4.4789 2.8443 5.3928 4.498 11.539 4.605 17.772-3.6183-9.6293-8.1278-18.906-15.46-26.147 1.7878 0.67665 3.5634 1.421 5.3194 2.2334 4.9981 0.52488 9.9578 2.1327 14.638 4.533-15.321-15.653-34.465-27.935-56.605-27.768zm57.884 33.322 0.80452 0.64242c-0.26745-0.21598-0.53466-0.42976-0.80452-0.64242zm-38.611-16.571c4.4953 0.48307 9.0645 1.4796 13.593 2.9299 2.004 2.9759 3.9962 6.24 5.7758 9.6483 2.0653 3.9554 3.8475 8.1023 5.0673 12.206-5.1818-9.2662-14.114-19.652-24.436-24.784z" fill="url(#h)" opacity=".5281"/>
  <path d="m361.34 813.14c-6.5339-8.9292-14.232-16.73-22.783-23.294-0.01-7e-3 -0.01-0.0315-0.016-0.0386-1.3288-1.0195-2.6826-2.0117-4.0522-2.9678l-59.294-17.66 86.146 43.961zm21.773 76.449-110.43-116.72 100.67 155.23c5.4248-12.12 8.7579-25.144 9.7616-38.503zm-114.45-114.8 11.446 220.98c11.263-1.155 22.538-4.0034 33.492-8.6915 1.7367-0.74329 3.4423-1.5296 5.1207-2.3483l-50.059-209.94zm-4.4438-0.31202-89.045 174.49c8.0278 11.037 17.813 20.369 28.799 27.753l60.246-202.24zm-3.6693-2.5308-98.177 63.674c-5.1334 11.95-8.2526 24.752-9.1392 37.851l107.32-101.52zm-1.9791-3.9987-16.102 0.83081c-6.5865 1.507-13.133 3.6223-19.567 6.3759-1.9832 0.84876-3.9248 1.7482-5.8351 2.6933l41.504-9.9z" fill="url(#k)" opacity=".9554"/>
 </g>
</svg>
