<?xml version="1.0" encoding="UTF-8"?>
<svg version="1.1" viewBox="0 0 100 100" xml:space="preserve" xmlns="http://www.w3.org/2000/svg">
<path d="m78.179 89.604l-2.844-1.67c0.096-1.145-0.045-2.263-0.378-3.3l2.383-2.271-1.646-2.603-3.072 1.181c-0.803-0.749-1.759-1.354-2.819-1.756h-2e-3l-0.291-3.284-3.061-0.335-0.995 3.141c-1.122 0.163-2.183 0.547-3.131 1.106 0 0-1e-3 0-1e-3 1e-3l-2.747-1.819-2.171 2.185 1.835 2.734c-0.55 0.943-0.923 1.998-1.081 3.14l-3.14 1.015 0.354 3.057 3.28 0.271v1e-3c0.407 1.044 1.012 2 1.779 2.808l-1.162 3.083 2.612 1.629 2.26-2.4c0.523 0.166 1.065 0.279 1.634 0.343 0.563 0.063 1.122 0.067 1.668 0.022l1.685 2.829 2.903-1.025-0.466-3.259c0.918-0.623 1.721-1.426 2.344-2.358v-1e-3l3.26 0.447 1.01-2.912zm-11.74 0.17l-1.391-0.063-0.668-1.219-0.812-1.129 0.532-1.282 0.375-1.341 1.336-0.384 1.282-0.541 1.132 0.808 1.225 0.659 0.071 1.391 0.248 1.367-1.043 0.925-0.916 1.047-1.371-0.238z"/>
<path d="m55.563 69.659l-2.017 0.721 0.292 1.979 2.14 0.108v1e-3c0.284 0.672 0.698 1.276 1.209 1.786l-0.692 2.025 1.729 1.006 1.42-1.604c0.344 0.101 0.699 0.163 1.065 0.189 0.369 0.027 0.727 0.023 1.083-0.021h1e-3l1.153 1.805 1.864-0.726-0.368-2.104c0.586-0.423 1.087-0.96 1.476-1.579v-1e-3l2.126 0.224 0.595-1.909-1.881-1.028v-2e-3c0.035-0.749-0.077-1.467-0.312-2.13-1e-3 -1e-3 -1e-3 -2e-3 -1e-3 -3e-3l1.501-1.522-1.121-1.657-1.974 0.83c-0.54-0.474-1.167-0.848-1.866-1.086l-0.255-2.124-1.994-0.155-0.583 2.062c-0.727 0.126-1.408 0.397-2.014 0.776 0 1e-3 -1e-3 1e-3 -2e-3 2e-3l-1.816-1.123-1.365 1.462 1.248 1.739c-0.339 0.621-0.564 1.315-0.641 2.059zm3.864-0.101l0.212-0.88 0.862-0.275 0.821-0.379 0.75 0.5 0.808 0.406 0.077 0.898 0.188 0.885-0.658 0.622-0.574 0.696-0.893-0.128-0.903-0.013-0.46-0.776-0.552-0.718 0.322-0.838z"/>
<path d="m55.869 84.631l0.77-2.479-2.439-1.327v-3e-3c0.042-0.967-0.104-1.902-0.411-2.766l1.944-1.979-1.457-2.146-2.559 1.08c-0.698-0.612-1.516-1.097-2.421-1.406l-0.334-2.754-2.587-0.197-0.75 2.668-1e-3 1e-3c-0.943 0.169-1.824 0.521-2.606 1.021l-2.363-1.457-1.769 1.898 1.62 2.253c-0.434 0.807-0.726 1.706-0.826 2.673l-2.615 0.94 0.383 2.566 2.77 0.138c1e-3 0 1e-3 0 2e-3 1e-3 0.37 0.868 0.906 1.651 1.574 2.31l-0.895 2.632 2.245 1.302 1.833-2.079c0.444 0.122 0.907 0.202 1.386 0.242 0.479 0.034 0.949 0.024 1.408-0.026h2e-3l1.495 2.333 2.416-0.944-0.482-2.732c0.759-0.554 1.408-1.244 1.909-2.049l2.758 0.286zm-9.111-2.016l-1.17-0.016-0.6-1.007-0.716-0.928 0.416-1.093 0.277-1.139 1.116-0.358 1.063-0.492 0.976 0.647 1.045 0.524 0.103 1.166 0.245 1.146-0.854 0.81-0.744 0.905-1.157-0.165z"/>
<path d="m48.894 3c1.115 2.16 2.854 6.63 0.886 9.154-1.776 0.104-3.384 0.037-4.135-0.886-0.381-4.219 1.706-5.971 3.249-8.268"/>
<path d="m34.127 5.362c2.006 0.903 6.894 1.955 7.087 4.726 0.125 1.76-0.908 2.953-2.656 2.953-3.325 0-3.417-4.676-4.431-7.679z"/>
<path d="m61.001 8.316c0.313 2.173-0.878 7.549-3.248 7.973-1.642 0.294-3.075-0.606-3.248-2.362-0.354-3.596 4.312-3.834 6.496-5.611z"/>
<path d="m36.491 14.518c1.76 1.842 3.387 5.193 2.656 8.564-1.25 1.179-3.742 1.036-4.725-0.295-0.66-3.202 1.203-5.689 2.069-8.269z"/>
<path d="m41.806 14.813c2.648-0.365 8.264 0.211 8.563 2.953 0.146 1.326-0.907 2.415-2.362 3.248-3.285-0.85-4.51-3.758-6.201-6.201z"/>
<path d="m55.286 19.529c-0.584 6.018-4.616 11.127-5.314 18.014 4.986-0.164 8.402-4.369 12.106-6.793 1.128 0.25 1.423 1.336 1.772 2.362-2.149 2.036-5.198 2.743-7.382 4.727-2.766 2.511-5.586 6.535-5.021 12.4 0.218 2.276 1.54 5.65 1.772 8.861 0.135 1.863-3e-3 4.128 0.325 5.344 0.424 1.568 0.78 3.4 1.648 4.798-2.53 0.259-1.673 3.126-3.653 3.698-1.101 0.132-1.145-4.05-9.64-3.081 0.65-1.713 2.93-3.793 3.936-5.148 1.287-11.858-5.031-17.557-15.947-16.242-0.332-1.5 1.729-1.896 2.953-2.362 2.502-0.95 6.527-1.88 10.041-0.591-1.797-6.231-5.291-11.162-9.154-15.651-1.076-1.249-3.248-2.453-2.953-4.429 1.791-1.637 2.648 0.822 3.543 1.771 0.98 1.039 2.291 1.982 3.248 2.953 2.133 2.159 3.971 4.683 6.498 5.906 6.086-2.773 6.63-11.088 9.449-17.128 1.022-0.233 1.25 0.329 1.773 0.591z"/>
<path d="m29.698 18.947c0.152 8.117-8.324 1.373-8.564-1.182 2.804-0.542 7.146-0.591 8.564 1.182z"/>
<path d="m59.523 19.832c2.562 4.263-1.387 12.437-5.021 7.088 0.133-3.904 3.09-4.983 5.021-7.088z"/>
<path d="m43.577 21.604c1.574 2.106 3.256 5.767 2.067 8.859-6.732 2.652-4.377-6.33-2.067-8.859z"/>
<path d="m71.927 23.082c-1.131 1.643-2.866 6.803-5.611 6.792-1.73-8e-3 -2.978-1.839-2.657-3.544 0.518-2.769 5.026-2.551 8.268-3.248z"/>
<path d="m29.402 26.625c0.995 1.324 0.493 3.314-0.296 4.43-3.537 0.826-6.165-1.401-8.563-2.657 2.18-1.234 5.895-3.183 8.859-1.773z"/>
<path d="m72.223 38.438c-3.022 0.853-6.884-5e-3 -8.564-1.479-0.344-7.895 7.093-1.782 8.564 1.479z"/>
<path d="m24.973 34.598c1.104 1.175 1.541 3.477 0.296 4.725-2.97 0.797-6.191-0.158-8.269-1.182 2.084-1.754 3.989-3.688 7.973-3.543z"/>
<path d="m37.081 37.553c-0.836 7.503-8.211 0.374-8.564-2.068 2.962-0.567 7.224 0.036 8.564 2.068z"/>
<path d="m64.248 44.639c-2.469-0.07-7.554-1.494-7.677-4.135-0.096-2.059 2.369-3.619 4.43-2.361 1.912 1.168 2.067 4.886 3.247 6.496z"/>
<path d="m27.04 43.457c4.498 4.176-2.422 6.517-7.382 5.02 1.935-2.198 3.21-5.057 7.382-5.02z"/>
<path d="m62.181 49.363c-0.88 0.728-1.731 1.927-2.951 2.657-2.177 1.304-6.837 2.255-6.202-1.771 0.551-3.498 6.438-1.804 9.153-0.886z"/>
<path d="m31.47 57.337c-1.114-2.363-0.976-7.874 1.182-8.86 7.122 0.095 1.542 7.294-1.182 8.86z"/>
</svg>
