<?xml version="1.0" encoding="iso-8859-1"?>
<!-- Generator: Adobe Illustrator 19.0.0, SVG Export Plug-In . SVG Version: 6.00 Build 0)  -->
<svg xmlns="http://www.w3.org/2000/svg" xmlns:xlink="http://www.w3.org/1999/xlink" version="1.1" id="Layer_1" x="0px" y="0px" viewBox="0 0 512.072 512.072" style="enable-background:new 0 0 512.072 512.072;" xml:space="preserve" width="512" height="512">
<g>
	<path d="M440.455,244.499c-9.265-22.179-23.316-42.11-41.189-58.386v-76.145h-16.902c-28.344,0-54.569,12.794-71.953,34.67   c-7.319-0.983-14.722-1.479-22.109-1.479H214.69c-53.351,0-100.855,25.485-131.002,64.913c-12.5-6.326-20.518-16.932-24.895-32.73   l-28.911,8.011c6.309,22.767,19.232,39.814,37.797,50.136c-11.393,22.39-17.825,47.71-17.825,74.506   c0,31.448,8.893,62.03,25.716,88.44c14.658,23.01,34.707,41.97,58.357,55.278v60.095h95.763v-38.977h43.6v39.241h95.763v-60.359   c31.903-17.998,57.269-46.513,71.396-80.222h41.742V244.499H440.455z M452.19,341.491h-32.803l-3.469,10.147   c-11.497,33.627-36.449,61.893-68.457,77.55l-8.409,4.113v48.77H303.29v-39.241h-103.6v38.977h-35.763v-48.511l-8.408-4.114   c-46.672-22.836-75.666-69.272-75.666-121.188c0-74.349,60.487-134.836,134.836-134.836h73.612c8.733,0,17.489,0.846,26.023,2.514   l10.081,1.97l5.481-8.687c9.065-14.367,23.245-24.151,39.378-27.607v58.597l5.386,4.497c19.028,15.889,33.298,36.605,41.265,59.908   l3.469,10.147h32.803V341.491z"/>
	<rect x="194.463" y="199.706" width="110.851" height="30"/>
	<path d="M367.024,256.456c-10.954,0-19.866,8.912-19.866,19.867c0,10.954,8.912,19.866,19.866,19.866   c10.955,0,19.867-8.912,19.867-19.866C386.89,265.368,377.978,256.456,367.024,256.456z"/>
	<path d="M249.888,108.063c29.793,0,54.031-24.238,54.031-54.031S279.681,0,249.888,0s-54.031,24.238-54.031,54.031   S220.095,108.063,249.888,108.063z M249.888,30c13.251,0,24.031,10.78,24.031,24.031s-10.78,24.031-24.031,24.031   s-24.031-10.78-24.031-24.031S236.637,30,249.888,30z"/>
</g>















</svg>
