<?xml version="1.0" encoding="UTF-8"?>
<svg version="1.1" viewBox="0 0 100 64.827" xml:space="preserve" xmlns="http://www.w3.org/2000/svg">
<path d="m39.609 13.303c3.662 0 6.637-2.975 6.654-6.65-0.017-3.665-2.992-6.639-6.654-6.653-3.678 0.014-6.653 2.988-6.65 6.653-3e-3 3.676 2.972 6.65 6.65 6.65z"/>
<path d="m15.35 48.254v-20.401l11.881-6.405v6.049c-6e-3 1.15 0.31 1.646 0.748 2.063l6.794 7.505c3.05 3.09 7.423-1.172 4.66-4.267l-6.014-6.652v-12.664c-0.042-3.895-5.306-7.453-9.069-5.513l-15.9 8.572c-2.104 1.21-2.945 3.28-2.953 5.405v26.379c8e-3 7.198 9.856 7.2 9.853-0.071z"/>
<path d="m60.903 13.303c3.68 0 6.653-2.975 6.651-6.65 3e-3 -3.665-2.971-6.639-6.651-6.653-3.66 0.014-6.637 2.988-6.651 6.653 0.015 3.676 2.991 6.65 6.651 6.65z"/>
<path d="m67.093 26.146l-6.012 6.652c-2.763 3.095 1.608 7.357 4.66 4.267l6.793-7.505c0.44-0.417 0.756-0.913 0.746-2.063v-6.049l11.883 6.405v20.402c-4e-3 7.271 9.847 7.269 9.853 0.07v-26.379c-6e-3 -2.125-0.851-4.195-2.951-5.405l-15.9-8.572c-3.764-1.94-9.025 1.618-9.071 5.513v12.664z"/>
<path d="m75 53.715l-7.266-3.633-0.284-0.142c-0.14-0.048-0.281-0.089-0.437-0.089-0.343 0-0.646 0.138-0.889 0.344l-0.264 0.315-10.304 11.538h-2.301l3.404-8.333h-13.319l3.404 8.333h-2.3l-10.305-11.537-0.265-0.315c-0.243-0.206-0.545-0.344-0.888-0.344-0.155 0-0.297 0.041-0.437 0.089l-0.283 0.142-7.266 3.632h-25v11.111h100v-11.111h-25z"/>
<path d="m48.625 20.382v33.333c0 1.772 2.75 1.772 2.75 0v-33.333c0-1.773-2.75-1.773-2.75 0z"/>
<path d="m47.564 44.574c-2.167-2.169-5.892-1.964-5.892-1.964s-0.205 3.724 1.964 5.892c2.17 2.17 5.892 1.964 5.892 1.964s0.206-3.724-1.964-5.892z"/>
<path d="m47.564 30.685c-2.167-2.169-5.892-1.964-5.892-1.964s-0.205 3.724 1.964 5.892c2.17 2.17 5.892 1.964 5.892 1.964s0.206-3.723-1.964-5.892z"/>
<path d="m52.436 39.018c2.168-2.169 5.893-1.964 5.893-1.964s0.205 3.725-1.964 5.892c-2.171 2.17-5.892 1.964-5.892 1.964s-0.207-3.723 1.963-5.892z"/>
<path d="m52.436 25.129c2.168-2.169 5.893-1.964 5.893-1.964s0.205 3.725-1.964 5.892c-2.171 2.17-5.892 1.964-5.892 1.964s-0.207-3.723 1.963-5.892z"/>
</svg>
