<svg height="448pt" viewBox="0 0 448 448.4" width="448pt" xmlns="http://www.w3.org/2000/svg"><path d="m168.199219 152c0 8.835938-7.164063 16-16 16-8.835938 0-16-7.164062-16-16s7.164062-16 16-16c8.835937 0 16 7.164062 16 16zm0 0"/><path d="m120.199219 152c0-13.601562 8.800781-25.601562 21.601562-30.398438-24.800781 2.398438-48.800781 12.796876-67.199219 30.398438 18.398438 17.601562 41.597657 28 67.199219 30.398438-12.800781-4.796876-21.601562-16.796876-21.601562-30.398438zm0 0"/><path d="m184.199219 152c0 13.601562-8.800781 25.601562-21.597657 30.398438 24.796876-2.398438 48.796876-12.796876 67.199219-30.398438-18.402343-17.601562-41.601562-28-67.199219-30.398438 12.796876 4.796876 21.597657 16.796876 21.597657 30.398438zm0 0"/><path d="m268.199219 273.601562 52.800781 59.199219 12.800781-12.800781-53.601562-60c-4 4.800781-8 9.601562-12 13.601562zm0 0"/><path d="m152.199219 272c66.402343 0 120-53.601562 120-120s-53.597657-120-120-120c-66.398438 0-120 53.601562-120 120s53.601562 120 120 120zm56-40h-112v-16h112zm-112-160h112v16h-112zm-38.398438 84.800781-3.199219-4.800781 4-5.601562c47.199219-52 128-55.199219 180-8 2.398438 2.402343 5.597657 4.800781 8 8l.796876.800781 4 4.800781-4 5.601562c-47.199219 52-128 55.199219-180 8-4-3.203124-6.398438-5.601562-9.597657-8.800781zm0 0"/><path d="m290.601562 247.199219 57.597657 64.800781h5.601562c6.398438 0 12.800781 2.398438 16.800781 7.199219l37.597657 37.601562v-292.800781c0-13.601562-10.398438-24-24-24h-107.199219c52 57.601562 57.601562 143.199219 13.601562 207.199219zm101.597657 32.800781h-48v-16h48zm0-40h-56v-16h56zm0-40h-56v-16h56zm0-40h-56v-16h56zm0-40h-56v-16h56zm-72-56h72v16h-72zm0 0"/><path d="m152.199219 304c84 0 152-68 152-152s-68-152-152-152-152 68-152 152 68 152 152 152zm0-288c75.199219 0 136 60.800781 136 136s-60.800781 136-136 136-136-60.800781-136-136 60.800781-136 136-136zm0 0"/><path d="m442.601562 413.601562-83.203124-83.203124c-1.597657-1.597657-3.199219-2.398438-5.597657-2.398438h-6.402343l-19.199219 19.199219v6.402343c0 2.398438.800781 4 2.402343 5.597657l83.199219 83.199219c8 8 20.800781 8 28.800781 0 7.199219-8 8-20.796876 0-28.796876zm0 0"/><path d="m312.199219 353.601562v-6.402343l-56-63.199219c-64 50.398438-155.199219 48-216-7.199219v107.199219c0 13.601562 10.402343 24 24 24h292.800781l-37.601562-37.601562c-4.796876-4.796876-7.199219-10.398438-7.199219-16.796876zm-256-17.601562h216v16h-216zm248 48h-248v-16h248zm0 0"/></svg>