<?xml version="1.0" encoding="iso-8859-1"?>
<!-- Generator: Adobe Illustrator 18.0.0, SVG Export Plug-In . SVG Version: 6.00 Build 0)  -->
<!DOCTYPE svg PUBLIC "-//W3C//DTD SVG 1.1//EN" "http://www.w3.org/Graphics/SVG/1.1/DTD/svg11.dtd">
<svg version="1.1" id="Capa_1" xmlns="http://www.w3.org/2000/svg" xmlns:xlink="http://www.w3.org/1999/xlink" x="0px" y="0px"
	 viewBox="0 0 345 345" style="enable-background:new 0 0 345 345;" xml:space="preserve">
<g>
	<path d="M321.476,125.263c3.338-8.811,5.331-18.009,5.331-27.428c0-42.379,0.092-64.175,0.093-64.391
		c0.009-2.089-1.282-3.963-3.236-4.7L248.268,0.322c-1.137-0.429-2.391-0.429-3.527,0l-64.027,24.137
		c-2.72-0.139-5.456-0.216-8.211-0.216h-0.002H172.5h-0.003C84.066,24.246,12.122,96.191,12.122,184.623
		c0,88.43,71.943,160.374,160.375,160.377h0.003h0h0.002c88.431,0,160.375-71.945,160.375-160.377
		C332.878,163.661,328.827,143.631,321.476,125.263z M312.878,184.623c0,14.017-13.924,28.423-38.202,39.524
		c-7.5,3.43-15.717,6.421-24.479,8.971c-0.686-0.705-1.431-1.349-2.216-1.943c1.159-8.072,2.011-16.365,2.558-24.812
		c0.14-0.157,0.272-0.32,0.391-0.492c6.958-4.783,30.164-21.564,49.1-44.832C308.362,168.574,312.878,176.659,312.878,184.623z
		 M109.952,237.223c5.203,0,9.436,4.234,9.436,9.438c0,5.202-4.233,9.435-9.436,9.435c-5.204,0-9.438-4.232-9.438-9.435
		C100.515,241.457,104.749,237.223,109.952,237.223z M100.515,122.077c0-5.203,4.234-9.436,9.438-9.436
		c5.203,0,9.436,4.233,9.436,9.436c0,5.204-4.233,9.438-9.436,9.438C104.749,131.515,100.515,127.281,100.515,122.077z
		 M116.827,228.502c-2.018-13.986-3.087-28.732-3.087-43.879c0-15.339,1.092-30.271,3.16-44.414
		c5.13-1.973,9.209-6.052,11.182-11.182c13.92-2.033,28.599-3.124,43.681-3.158c12.26,31.726,41.91,58.324,59.222,71.831
		c-0.438,10.761-1.412,21.261-2.889,31.356c-4.655,2.175-8.301,6.132-10.068,10.997c-14.471,2.174-29.782,3.326-45.523,3.326
		c-15.271,0-30.137-1.083-44.225-3.132C126.381,234.842,122.168,230.532,116.827,228.502z M236.283,237.223
		c5.203,0,9.436,4.234,9.436,9.438c0,5.202-4.233,9.435-9.436,9.435c-5.204,0-9.438-4.232-9.438-9.435
		C226.846,241.457,231.08,237.223,236.283,237.223z M246.504,20.057l63.048,23.767c-0.022,6.905-0.072,25.247-0.072,54.608
		c0,41.93-50.371,79.807-62.976,88.625c-12.605-8.813-62.975-46.671-62.975-88.625c0-29.361-0.05-47.703-0.072-54.608
		L246.504,20.057z M166.146,45.186c0.026,10.549,0.057,28.152,0.057,52.65c0,2.713,0.173,5.407,0.487,8.08
		c-14.465,0.249-28.591,1.42-42.096,3.42c-0.316-0.363-0.636-0.723-0.978-1.062c2.632-9.269,5.753-17.943,9.357-25.828
		C142.401,61.828,154.213,48.682,166.146,45.186z M127.701,51.573c-4.667,6.457-8.999,13.988-12.917,22.557
		c-4.103,8.973-7.622,18.848-10.564,29.376c-6.112,1.891-10.945,6.719-12.838,12.829c-10.528,2.944-20.399,6.468-29.372,10.571
		c-8.568,3.917-16.101,8.249-22.557,12.917C53.44,98.393,86.271,65.562,127.701,51.573z M70.326,145.095
		c7.882-3.604,16.554-6.724,25.82-9.355c0.34,0.344,0.701,0.665,1.065,0.982c-2.268,15.306-3.472,31.41-3.472,47.901
		c0,16.331,1.183,32.279,3.408,47.451c-0.477,0.419-0.932,0.86-1.365,1.323c-9.129-2.609-17.678-5.694-25.456-9.25
		c-24.279-11.101-38.204-25.507-38.204-39.524C32.122,170.604,46.047,156.197,70.326,145.095z M39.452,229.419
		c6.456,4.667,13.989,8.999,22.558,12.917c9.034,4.131,18.971,7.68,29.579,10.637c1.994,5.78,6.628,10.338,12.468,12.202
		c2.975,10.742,6.552,20.805,10.728,29.94c3.918,8.567,8.249,16.099,12.916,22.554C86.27,303.681,53.438,270.849,39.452,229.419z
		 M172.501,325h-0.003c-14.019-0.001-28.424-13.925-39.525-38.203c-3.657-7.999-6.818-16.809-9.473-26.229
		c0.238-0.232,0.461-0.476,0.687-0.72c15.429,2.307,31.676,3.531,48.316,3.531c16.971,0,33.539-1.266,49.241-3.663
		c-2.704,9.744-5.95,18.84-9.718,27.081C200.924,311.075,186.518,325,172.501,325z M217.297,317.671
		c4.667-6.456,9-13.988,12.918-22.557c4.131-9.035,7.678-18.975,10.634-29.583c6.594-1.596,11.888-6.547,13.941-12.951
		c10.09-2.877,19.562-6.293,28.203-10.244c8.568-3.918,16.1-8.25,22.556-12.917C291.562,270.852,258.729,303.685,217.297,317.671z"
		/>
	<path d="M246.93,120.316c-6.255,0-13.012-2.699-16.814-6.716c-1.898-2.005-5.063-2.093-7.068-0.194l-7.263,6.874
		c-2.005,1.898-2.093,5.063-0.194,7.068c5.32,5.621,12.835,9.736,20.912,11.692v6.635c0,2.761,2.239,5,5,5h10c2.761,0,5-2.239,5-5
		v-6.294c14.3-2.908,23.651-12.402,23.651-25.034c0.172-20.156-17.343-25.461-28.934-28.972
		c-13.147-3.982-15.806-5.856-15.806-11.143c0-5.216,9.072-6.594,13.869-6.594c5.007,0,10.964,1.588,14.485,3.861
		c1.114,0.72,2.469,0.967,3.765,0.687c1.296-0.279,2.429-1.062,3.148-2.176l5.424-8.401c0.719-1.114,0.966-2.468,0.687-3.765
		c-0.279-1.296-1.061-2.429-2.176-3.148c-4.943-3.191-11.478-5.491-18.113-6.495v-5.925c0-2.761-2.239-5-5-5h-10
		c-2.761,0-5,2.239-5,5v7.05c-12.858,3.635-21.089,12.873-21.089,24.905c0,21.195,18.059,26.665,30.009,30.284
		c13.566,4.109,14.765,5.831,14.731,9.745C260.153,119.05,251.504,120.316,246.93,120.316z"/>
</g>
<g>
</g>
<g>
</g>
<g>
</g>
<g>
</g>
<g>
</g>
<g>
</g>
<g>
</g>
<g>
</g>
<g>
</g>
<g>
</g>
<g>
</g>
<g>
</g>
<g>
</g>
<g>
</g>
<g>
</g>
</svg>
